<svg xmlns="http://www.w3.org/2000/svg" width="163" height="18" fill="none"><path fill="#171F1C" d="M3.036.32V17H.3V.32h2.736Zm10.48 16.848c-1.552 0-2.984-.36-4.296-1.08a8.32 8.32 0 0 1-3.096-3.048c-.752-1.312-1.128-2.784-1.128-4.416 0-1.632.376-3.096 1.128-4.392A8.14 8.14 0 0 1 9.22 1.208C10.532.472 11.964.104 13.516.104c1.568 0 3 .368 4.296 1.104a7.922 7.922 0 0 1 3.096 3.024c.752 1.296 1.128 2.76 1.128 4.392 0 1.632-.376 3.104-1.128 4.416a8.093 8.093 0 0 1-3.096 3.048c-1.296.72-2.728 1.08-4.296 1.08Zm0-2.376c1.104 0 2.088-.248 2.952-.744a5.26 5.26 0 0 0 2.016-2.16c.496-.944.744-2.032.744-3.264 0-1.232-.248-2.312-.744-3.24-.48-.928-1.152-1.64-2.016-2.136-.864-.496-1.848-.744-2.952-.744-1.104 0-2.088.248-2.952.744-.864.496-1.544 1.208-2.04 2.136-.48.928-.72 2.008-.72 3.24 0 1.232.24 2.32.72 3.264.496.928 1.176 1.648 2.04 2.16.864.496 1.848.744 2.952.744ZM37.712 17h-2.736L26.744 4.544V17h-2.736V.296h2.736l8.232 12.432V.296h2.736V17Zm12.93-3.408h-6.985L42.457 17h-2.856L45.577.296h3.168L54.721 17h-2.88l-1.2-3.408Zm-.769-2.232-2.712-7.752-2.736 7.752h5.448Zm12.223 5.808c-1.12 0-2.128-.192-3.024-.576-.896-.4-1.6-.96-2.112-1.68s-.768-1.56-.768-2.52h2.928c.064.72.344 1.312.84 1.776.512.464 1.224.696 2.136.696.944 0 1.68-.224 2.208-.672.528-.464.792-1.056.792-1.776 0-.56-.168-1.016-.504-1.368a3.167 3.167 0 0 0-1.224-.816c-.48-.192-1.152-.4-2.016-.624-1.088-.288-1.976-.576-2.664-.864a4.508 4.508 0 0 1-1.728-1.392c-.48-.624-.72-1.456-.72-2.496 0-.96.24-1.8.72-2.52S58.112 1.064 58.976.68c.864-.384 1.864-.576 3-.576 1.616 0 2.936.408 3.96 1.224 1.04.8 1.616 1.904 1.728 3.312H64.64c-.048-.608-.336-1.128-.864-1.56-.528-.432-1.224-.648-2.088-.648-.784 0-1.424.2-1.92.6-.496.4-.744.976-.744 1.728 0 .512.152.936.456 1.272.32.32.72.576 1.2.768.48.192 1.136.4 1.968.624 1.104.304 2 .608 2.688.912a4.349 4.349 0 0 1 1.776 1.416c.496.624.744 1.464.744 2.52 0 .848-.232 1.648-.696 2.4-.448.752-1.112 1.36-1.992 1.824-.864.448-1.888.672-3.072.672Zm10.908-2.544h7.752V17H69.764v-2.136l7.728-12.168h-7.728V.32h10.992v2.136l-7.752 12.168ZM92.22 17l-6.456-7.464V17h-2.736V.32h2.736v7.608L92.243.32h3.432l-7.248 8.352L95.795 17h-3.576ZM100.206.32v10.632c0 1.264.328 2.216.984 2.856.672.64 1.6.96 2.784.96 1.2 0 2.128-.32 2.784-.96.672-.64 1.008-1.592 1.008-2.856V.32h2.736v10.584c0 1.36-.296 2.512-.888 3.456a5.511 5.511 0 0 1-2.376 2.112c-.992.464-2.088.696-3.288.696-1.2 0-2.296-.232-3.288-.696a5.394 5.394 0 0 1-2.328-2.112c-.576-.944-.864-2.096-.864-3.456V.32h2.736ZM122.009 17l-3.84-6.672h-2.088V17h-2.736V.32h5.76c1.28 0 2.36.224 3.24.672.896.448 1.56 1.048 1.992 1.8.448.752.672 1.592.672 2.52 0 1.088-.32 2.08-.96 2.976-.624.88-1.592 1.48-2.904 1.8L125.273 17h-3.264Zm-5.928-8.856h3.024c1.024 0 1.792-.256 2.304-.768.528-.512.792-1.2.792-2.064 0-.864-.256-1.536-.768-2.016-.512-.496-1.288-.744-2.328-.744h-3.024v5.592ZM141.493 17h-2.736l-8.232-12.456V17h-2.736V.296h2.736l8.232 12.432V.296h2.736V17ZM147.102.32V17h-2.736V.32h2.736ZM159.166 17l-6.456-7.464V17h-2.736V.32h2.736v7.608L159.19.32h3.432l-7.248 8.352L162.742 17h-3.576Z"/></svg>