<svg xmlns="http://www.w3.org/2000/svg" width="81" height="33" fill="none"><g fill="#fff" clip-path="url(#a)" opacity=".5"><path d="M0 0h26.908v15.23h-2.031V1.863H1.862v29.276h23.015l-.17-11L23.186 22c-.279.313-.56.625-.846.93a37.578 37.578 0 0 0-1.608 1.862l-.377.458c-.269.33-.532.666-.79 1.004l-.42.516-.369.473c-.498.342-.498.342-2.36.342l-.169-6.77c-1.158 1.276-1.158 1.276-2.253 2.592a42.149 42.149 0 0 1-2.105 2.385l-.245.262-.245.255c-.236.255-.236.255-.412.551-.184.282-.184.282-.663.725H8.462V17.6h1.861l.17 6.77 1.522-1.862c.307-.342.616-.681.931-1.016a40.48 40.48 0 0 0 1.756-2.01l.376-.456c.318-.39.318-.39.533-.752.18-.283.18-.283.635-.674h2.03l.17 6.77 1.523-1.862c.307-.342.616-.681.931-1.016a44.271 44.271 0 0 0 2.104-2.442c.393-.488.795-.969 1.196-1.45h2.708V33H0V0Z"/><path d="M8.46 5.246c2.032 0 2.032 0 2.62.459.16.202.312.409.459.62l.508.658.243.328c.318.417.669.799 1.026 1.182a46.71 46.71 0 0 1 1.907 2.262c.32.383.67.739 1.023 1.091l.169-6.6h1.861v9.985c-1.861 0-1.861 0-2.36-.342l-.369-.473-.42-.517-.405-.53-.75-.92-.373-.461a48.58 48.58 0 0 0-1.825-2.033c-.442-.485-.862-.99-1.282-1.494l-.17 6.77H8.461V5.246ZM35.883 17.6h1.354a33.282 33.282 0 0 1 1.523 3.385l1.184-3.384h1.523l1.185 3.384 1.354-3.384h1.523a3940.762 3940.762 0 0 1-1.046 2.622c-.374.936-.75 1.87-1.154 2.793h-1.523l-1.185-3.215-.653 1.99-.124.373-.126.384c-.112.299-.112.299-.281.468-.452.024-.901.007-1.354 0-.613-1.12-1.101-2.286-1.576-3.47l-.186-.46-.172-.433-.155-.392c-.111-.322-.111-.322-.111-.66Zm8.453-7.954h5.923v1.185h-4.738v.846h4.23v1.185h-4.23v1.015h4.738v1.354h-5.923V9.646Zm17.965-.106.36.023c.566.038 1.106.086 1.65.252L64.141 11l-.351-.003-1.573-.008-.554-.004-.529-.002-.489-.002c-.4-.008-.4-.008-.734.188v.338c.608.183 1.198.21 1.83.244 2.07.144 2.07.144 2.824.804.341.64.285.97.085 1.66-.433.571-.847.805-1.524 1.016-.518.053-1.033.056-1.554.053l-.433-.001c-1.036-.016-1.96-.146-2.92-.56l.338-1.185c.11.025.218.05.33.074 1.515.312 3.058.446 4.578.095l-.17-.338c-.454-.15-.904-.202-1.379-.242l-.398-.038a94.023 94.023 0 0 0-.821-.071c-.77-.075-1.349-.162-1.97-.664-.307-.676-.39-1.021-.17-1.735.492-.676 1.005-.895 1.81-1.074.654-.08 1.28-.053 1.934-.005Zm18.252 8.23-.169 1.184-.295-.018c-.444-.027-.889-.052-1.334-.077l-.463-.029c-.799-.043-1.52-.052-2.308.124l.17.508c.672.155 1.32.201 2.009.233 1.077.07 1.938.16 2.729.952.117.707.126 1.326-.265 1.935-1.382.886-3.326.793-4.894.489-.43-.118-.852-.244-1.272-.394l.338-1.184.422.074c2.199.43 2.199.43 4.317-.074-.47-.47-.783-.39-1.439-.413-2.554-.152-2.554-.152-3.255-.928-.305-.501-.306-.79-.214-1.367.438-.711.667-.946 1.45-1.248 1.507-.278 2.996-.133 4.473.233Zm-8.48-7.587c.616.488.984.942 1.083 1.725.004.896-.033 1.546-.558 2.308-1.118 1.058-2.265 1.104-3.729 1.068-1.107-.088-1.843-.37-2.618-1.164-.49-.795-.508-1.534-.423-2.443.287-.8.632-1.247 1.354-1.692 1.644-.65 3.333-.762 4.891.198Zm-4.722 1.325c-.265.531-.228.937-.169 1.523.46.588.795.882 1.523 1.015 1.031.1 1.798-.006 2.708-.507.414-.622.46-1.14.338-1.862-.373-.502-.59-.648-1.184-.846-1.756-.154-1.756-.154-3.216.677ZM36.383 9.646c1.354 0 1.354 0 1.758.236l.327.327.369.359.37.38.376.37c.347.342.689.688 1.03 1.036l.847.846.169-3.554h1.354v5.585c-1.354 0-1.354 0-1.883-.402a19.227 19.227 0 0 1-.486-.54 212.2 212.2 0 0 0-.523-.56l-.253-.275c-.416-.44-.875-.826-1.336-1.218a10.604 10.604 0 0 1-.596-.559l-.17 3.554h-1.353V9.646Zm37.914 0c1.354 0 1.354 0 1.698.218.081.1.163.198.248.3a14.865 14.865 0 0 0 1.576 1.518c.538.485 1.043 1.006 1.555 1.518l.169-3.554h1.354v5.585c-1.354 0-1.354 0-1.688-.183l-.232-.257-.267-.282-.267-.304-.569-.606-.273-.297c-.5-.527-1.057-.988-1.612-1.455l-.169-.17-.17 3.554h-1.353V9.646ZM66.68 17.6c1.353 0 1.353 0 1.87.348l.478.478.257.251c.263.259.521.522.78.785l.506.5c.398.395.792.793 1.186 1.192l.169-3.553h1.354v5.415c-1.523 0-1.523 0-1.895-.201l-.254-.282-.293-.31-.287-.328c-.194-.21-.388-.421-.583-.63l-.253-.285c-.474-.482-1-.91-1.512-1.349l-.17 3.385H66.68v-5.415Zm-5.079-.095c1.03-.046 1.03-.046 1.448.328.23.342.415.687.596 1.057l.21.392c.142.266.282.533.42.801.31.594.65 1.17.988 1.748.571.993.571.993.571 1.184-.513.039-1.01.06-1.523 0-.349-.317-.349-.317-.508-.677V22c-.582.004-1.163.017-1.745.032l-.5.003c-.452.014-.868.033-1.309.134-.326.41-.326.41-.507.846-.383.083-.383.083-.793.053l-.415-.023-.315-.03c2.492-5.259 2.492-5.259 3.382-5.51Zm.34 1.449c-.179.274-.35.553-.517.835l-.281.47c-.23.338-.23.338-.217.556h2.031a21.831 21.831 0 0 0-.846-1.861h-.17Zm-10.5-9.308h1.354v4.231h4.4v1.354a896.473 896.473 0 0 1-3.186.013 345.388 345.388 0 0 1-1.528.006c-.29 0-.58-.008-.87-.019-.17-.17-.17-.17-.19-.685 0-.229.002-.457.004-.685v-.364c.001-.384.003-.769.006-1.153l.002-.78.008-1.918ZM49.078 17.6h1.185v4.231h4.569v1.185h-5.754v-5.415Zm6.938 0h1.354v5.416h-1.354v-5.415Zm-9.649 0h1.185v5.416h-1.185v-5.415Zm20.821 7.784 1.131-.031.637-.018c.637.053.944.172 1.447.557.24.481.222.822.17 1.354-.317.39-.569.623-1.016.846-.79.024-1.579.007-2.37 0v-2.707Zm.507.339v1.861l.9.022.505.012c.495.002.495.002.964-.372.043-.522.043-.522 0-1.015-.84-.412-1.412-.567-2.369-.508Zm-26.235-.339 1.133-.031.636-.018c.638.053.944.172 1.447.557.24.481.223.822.17 1.354-.316.39-.568.623-1.016.846-.79.024-1.578.007-2.37 0v-2.707Zm.509.339v1.861a27365.738 27365.738 0 0 0 1.404.034c.495.002.495.002.965-.372.042-.522.042-.522 0-1.015-.841-.412-1.413-.567-2.37-.508Zm18.107-.339v.508l-.42-.006-.553-.005-.547-.006c-.432.014-.778.06-1.187.186.03.735.03.735.338 1.354.306.025.613.037.92.042l.507.013.435-.055.338-.508h-1.354v-.338h1.862c-.083.93-.083.93-.458 1.298-.706.409-1.46.326-2.25.225-.54-.254-.54-.254-.846-.677a2.917 2.917 0 0 1 0-1.354c.31-.448.532-.622 1.037-.815.734-.047 1.45.046 2.178.138Zm14.048-.074h.53c.542.082.777.196 1.163.582.175.632.217 1.032.021 1.66-.544.56-1.117.658-1.883.709-.708-.103-1.046-.183-1.523-.72-.213-.585-.189-.888 0-1.48.517-.661.864-.767 1.692-.751Zm-1.184.751c-.183.492-.183.492-.17 1.015.151.335.151.335.508.508.606.146 1.059.194 1.671.074.41-.223.41-.223.519-.74.06-.548.06-.548-.328-1.026-.347-.111-.347-.111-.74-.138l-.396-.045c-.448.016-.693.101-1.064.352Zm6.897-.771.505.051.384.043v.508h-2.2l-.17.508.47.025.61.038.606.036c.515.07.515.07.853.408.021.445.021.445 0 .846-.579.354-1.03.38-1.703.37l-.535-.003c-.47-.028-.47-.028-.977-.197l.169-.508.383.049.505.057.5.06c.496.003.735-.076 1.15-.335-.515-.258-1.053-.235-1.623-.274-.407-.065-.407-.065-.915-.403-.053-.423-.053-.423 0-.846.603-.603 1.174-.521 1.988-.434Zm-25.686.094c.54.254.54.254.846.677.117.48.121.875 0 1.354-.438.519-.765.655-1.417.836-.768.013-1.127-.13-1.798-.498-.397-.595-.436-.822-.338-1.523.662-1.05 1.577-1.024 2.707-.846Zm-2.369 1.185c.143.452.247.768.614 1.079.609.16 1.152.112 1.755-.064.384-.267.384-.267.508-.677-.154-.646-.283-.809-.846-1.184-1.015-.132-1.386.064-2.03.846Zm11.678-1.185c.622.101.667.155 1.077.704.137.219.271.439.404.66l.211.34c.171.277.34.556.509.834l-.508.17-.339-.677h-2.2l-.169.677h-.508c.243-.67.564-1.234.952-1.83l.324-.5.248-.378Zm.17.508-.677 1.184h1.523l-.677-1.184h-.17Zm-25.888-.508c.621.101.666.155 1.076.704.137.219.272.439.405.66l.21.34c.172.277.34.556.509.834l-.508.17-.338-.677h-2.2l-.17.677h-.507c.242-.67.563-1.234.952-1.83l.324-.5.247-.378Zm.17.508c-.388.547-.388.547-.509 1.184h1.354l-.677-1.184h-.169Zm8.291-.508h.677c.32.401.32.401.624.92l.309.518.252.423.169.17.241-.402.32-.519.315-.517c.309-.424.309-.424.816-.593-.242.67-.564 1.233-.952 1.83l-.324.5-.247.378c-.617-.102-.666-.156-1.076-.699a40.767 40.767 0 0 1-.405-.655l-.21-.336c-.509-.818-.509-.818-.509-1.018Z"/></g><defs><clipPath id="a"><path fill="#fff" d="M0 0h80.892v33H0z"/></clipPath></defs></svg>