<svg xmlns="http://www.w3.org/2000/svg" width="96" height="48" fill="none"><path fill="#fff" d="m91.262 23.76-.8.216c-.76-2.592-2.036-3.703-3.836-3.703-1.264 0-2.16.832-2.16 2.16 0 1.264 1.04 1.944 3.867 3.086 2.602.957 3.681 2.128 3.681 4.176 0 3.116-2.448 5.07-6.468 5.07-1.934 0-4.124-.432-5.359-.925l-.154-4.33.76-.154c1.141 2.962 2.602 4.083 4.504 4.083 1.645 0 2.51-1.142 2.51-2.315 0-1.172-.67-1.85-3.24-2.776-2.449-.802-4.125-1.85-4.125-4.453 0-2.56 2.252-4.731 6.08-4.731 1.81 0 3.456.308 4.536.802l.204 3.794Zm-16.56 1.357c.092-2.036-.32-4.977-1.996-4.977-1.717 0-2.664 2.746-2.694 5.101l4.69-.124Zm-1.584-5.965c4.216 0 6.252 3.086 6.284 7.138H69.91c-.032 3.59 1.872 6.304 5.43 6.304 1.553 0 2.449-.432 3.394-1.11l.443.493c-1.04 1.42-3.2 2.776-6.08 2.776-4.628 0-7.837-3.177-7.837-7.662-.01-4.052 2.622-7.94 7.858-7.94m-13.679 7.508c-.093-3.2-1.264-5.749-3.517-5.749-.536 0-.947.093-1.584.309l.184 12.331c.226.093.76.154 1.141.154 2.19 0 3.775-3.096 3.775-7.044m4.7-.24c0 5.07-3.2 8.34-8.63 8.34-1.933 0-3.938-.308-5.676-.71.154-2.035.154-14.645 0-17.02-.154-1.235-.504-1.822-1.46-1.945l-.638-.061v-.566l6.696-1.234a256.55 256.55 0 0 0-.093 7.044c1.173-.586 2.252-.925 3.712-.925 3.486 0 6.08 2.962 6.08 7.076m-17.04-2.754c-2.067-1.357-4.288-.771-4.731 0-.196 2.376-.155 6.027.032 7.909.092 1.234.442 1.758 1.398 1.851l1.264.123v.803h-9.458v-.803l.73-.123c.915-.093 1.234-.616 1.296-1.851.226-2.006.288-6.212 0-8.526-.062-1.327-.38-1.821-1.296-1.944l-.73-.093v-.555l6.756-1.296-.092 3.456c1.584-3.58 4.73-4.012 6.438-3.055l-1.607 4.104Zm-22.174 3.312c0 3.775 1.019 6.86 3.075 6.86 2.222 0 2.86-3.024 2.86-6.86 0-3.836-.988-6.829-3.076-6.829-2.24 0-2.859 2.932-2.859 6.83Zm10.717-.061c0 4.33-2.86 7.84-7.96 7.84-5.02 0-7.549-3.343-7.549-7.724 0-4.3 2.86-7.879 7.96-7.879 5.02 0 7.549 3.363 7.549 7.755M22.496 19.46l-1.04.309c-.885-3.034-2.448-4.762-5.142-4.762h-3.518c-.195 2.016-.288 5.132-.195 8.496l2.344-.123c1.584 0 2.252-1.141 2.64-2.8h.885v7.015h-.9c-.381-1.696-1.04-2.848-2.64-2.942l-2.344-.032c0 2.5.032 4.638.195 5.934.154 1.852.669 2.695 2.026 2.87l1.275.123v.803H4.602v-.803l.956-.123c1.327-.184 1.872-1.018 2.027-2.87.256-3.024.32-9.482 0-13.072-.155-1.92-.7-2.684-2.027-2.838l-.956-.154v-.832h17.872l.022 5.801Z" opacity=".5"/></svg>