<svg xmlns="http://www.w3.org/2000/svg" width="75" height="49" fill="none"><g opacity=".5"><path fill="#fff" fill-rule="evenodd" d="M5.485 28.894c3.931-1.901 5.11 4.46 2.51 6.106-2.344 1.477-4.786-1.148-3.848-4.483.295-1.045.68-1.301 1.338-1.616v-.007Zm3.663-2.555c-1.618-1.69-4.6-1.635-6.574-.201-3.387 2.471-3.508 9.11.091 11.67 2.502 1.777 4.54.942 6.762-.258l.022 1.07 3.681-.037-.03-13.272-3.651.029c-.098.204-.053.943-.106 1.067-.317.659.179.158-.195-.069Z" clip-rule="evenodd"/><path fill="#fff" d="M9.195 26.694c.017-.008.034.016.05.012.01 0 .014-.008.022-.012.013-.004.021 0 .034 0 .03.004.034.012.017.047-.003.004-.034.004-.038.004-.026 0-.009.004-.026-.017-.002-.004-.008-.004-.008-.004-.002-.008.008-.02.012-.025.003-.008.004-.016.01-.02.008-.009.048-.005.058 0l-.004.043c-.013 0-.013-.005-.03 0-.004 0-.008.004-.013 0a.057.057 0 0 1-.017-.013c-.008 0-.017 0-.012.004 0-.004.001 0 0 0 .001 0 .005.005.007.005.004-.005.004-.009.008-.013h.03s.001 0 0 0c.002.052-.009.025.013.037h-.005c-.013 0-.021.004-.034 0-.008-.004-.013-.012-.021-.012-.017-.005-.034.02-.05.012V26.7l-.003-.005Z"/><path stroke="#fff" stroke-width=".105" d="M9.25 26.713c-.005-.004.004-.004.012-.004a.057.057 0 0 0 .017.012c.005.005.009 0 .013 0 .017-.004.017 0 .03 0l.004-.042c-.01-.005-.05-.009-.059 0-.005.004-.006.012-.009.02-.004.004-.014.017-.012.025 0 0 .006 0 .008.004.017.02 0 .017.026.017.004 0 .035 0 .038-.004.017-.035.013-.043-.017-.047-.013 0-.021-.004-.034 0-.008.004-.013.012-.021.012-.017.004-.034-.02-.05-.012l.002.005v.043c.016.008.033-.017.05-.012.008 0 .013.008.021.012.013.004.021 0 .034 0h.005c-.022-.012-.01.015-.013-.037m-.045.008c.001 0 0-.004 0 0Zm0 0c.001 0 .005.005.007.005.004-.005.004-.009.008-.013h.03m0 0c.001 0 0 0 0 0Z"/><path fill="#fff" d="M9.235 26.607c.005 0 .009.005.013.009h.084c.017 0 .026-.004.009.029h-.034c-.017.008-.03-.02-.047-.02l-.013.003c-.004 0-.009.005-.017.005-.021-.017-.034-.047-.009-.066.005-.004.013-.004.017-.008.005 0 .013-.004.018 0 .004.004.017.024.03.016.02-.012.004-.025.034-.016.038.016-.009.051-.026.041l-.013-.016c-.013-.008-.03.017-.034.02-.03 0-.06-.024-.034-.054.003-.004.008-.004.013-.008.004 0 .03-.009.034-.009.008.005.008.021.021.017.009 0 .009-.017.013-.02h.034c.038 0 .073.043.017.058-.008 0-.05.004-.053-.004-.021-.042.004-.012-.004-.02 0-.009-.003-.017.002-.021.004-.005.053.004.06.004l-.005.041a.178.178 0 0 1-.046-.007c-.004-.004-.006-.01-.01-.018.004.009-.002-.007.01-.02.002-.003.03.005.038 0 .013.001-.004 0-.004.021 0 .005.004.009.008.013-.004-.004-.007-.004-.011-.004l-.026-.005c-.008-.004-.008-.02-.017-.02-.008 0-.004.016-.013.025-.004.004-.013 0-.017.004-.008 0 .009-.021-.013-.021.003 0 .007.003.012.003.004.004.017.024.03.016.004-.004.006-.01.01-.019.009-.008.071 0 .009.037.004 0 0 0-.003-.004-.005-.008-.005-.016-.009-.02-.013-.013-.021.016-.025.02-.003.004-.01.004-.01.004.002.001 0 0 0 0s-.006-.02-.002-.004c0 .016.003.035.026.027.005 0 .009-.007.013-.007h.047c.017.033.008.03-.009.03H9.25c-.004 0-.008.004-.013.008v-.04Z"/><path stroke="#fff" stroke-width=".105" d="M9.282 26.616h-.034c-.004-.005-.008-.009-.013-.009l.001.04c.005-.004.009-.008.013-.008h.084c.017 0 .026.003.009-.03h-.047c-.004 0-.008.007-.013.007Zm0 0h.05c.017 0 .026-.004.009.029h-.034c-.017.008-.03-.02-.047-.02l-.013.003c-.004 0-.009.005-.017.005-.021-.017-.034-.047-.009-.066.005-.004.013-.004.017-.008.005 0 .013-.004.018 0m.026.057c-.023.008-.026-.01-.026-.027-.004-.017.003.004.003.004m-.003-.034c.004.004.017.024.03.016m-.03-.016c-.005 0-.009-.003-.012-.003.022 0 .005.02.013.02.004-.004.013 0 .017-.003.009-.009.005-.025.013-.025.009 0 .009.016.017.02a1.481 1.481 0 0 0 .037.009m-.056-.002c.022-.012.005-.025.035-.016.038.016-.009.051-.026.041l-.013-.016c-.013-.008-.03.017-.034.02-.03 0-.06-.024-.034-.054.003-.004.008-.004.013-.008.004 0 .03-.009.034-.009.008.005.008.021.021.017.009 0 .009-.017.013-.02h.034c.038 0 .073.043.017.058m-.06-.013c.005-.004.007-.01.011-.019.009-.008.071 0 .009.037.004 0 0 0-.003-.004-.005-.008-.005-.016-.009-.02-.013-.013-.021.016-.025.02-.003.004-.01.004-.01.004m.087-.005c-.008 0-.05.004-.053-.004-.021-.042.004-.012-.004-.02m.057.024.005-.041c-.007 0-.056-.009-.06-.005-.005.005-.001.013-.002.021m.057.025a.178.178 0 0 1-.046-.007c-.004-.004-.006-.01-.01-.018m0 0c.004.009-.002-.007.01-.02.002-.003.03.005.038 0 .013.001-.004 0-.004.021 0 .005.004.009.008.013m0 0Zm-.082.016s0 .001 0 0Z"/><path fill="#fff" fill-rule="evenodd" d="M18.653 38.59c.273-2.296-1.217-11.02 2.405-10.054 2.834.76-.129 7.656 2.268 10.084l3.84-.074c-1.278-2.42-.96-2.142-.968-5.25 0-1.813-.348-4.79 1.928-4.79 3.621 0-.068 7.708 2.933 10.106l3.864-.037c-2.495-2.56-.401-6.903-1.505-10.64a3.987 3.987 0 0 0-3.485-2.83c-2.51-.24-3.107.564-4.476 1.66-.892-.658-1.308-1.557-3.22-1.667-1.747-.102-2.936.436-3.745 1.328l-.03-.909c-.017-.095-.044-.133-.089-.199l-3.545.05.091 13.258 3.735-.029v-.007Zm22.324-9.66c3.977-2.1 5.028 4.855 2.329 6.171-2.004.973-3.372-.57-3.773-1.967-.408-1.411-.158-3.357 1.444-4.205Zm-1.575 8.794c1.775 1.37 5.19 1.42 6.958-.18 3.697-3.364 2.979-9.382-.468-11.62-2.631-1.704-4.499-.614-6.359.468l-.03-5.791-3.87.065.098 17.96 3.574.02c.098-.927.001.008 0 .013l.097-.935Z" clip-rule="evenodd"/><path fill="#fff" fill-rule="evenodd" d="M53.68 30.576c.597-3.203 4.136-3.145 4.59.008l-4.59-.008Zm7.832 3.766c-2.532.884-6.842 2.595-7.84-.995l8.46-.153c.167-3.78-1.005-6.67-3.765-7.751-7.28-2.852-11.756 7.45-6.358 11.831 2.268 1.843 6.653 2.194 9.027.248.378-.753.454-2.069.469-3.18h.007Zm13.474-9.017-4.082.073-2.624 8.607-2.54-8.688-4.037.009c.129 1.133 3.977 12.314 4.551 13.286l4.249.02 4.49-13.3-.007-.007Z" clip-rule="evenodd"/><path fill="#fff" d="m58.27 13.243-.005.001c-.099.102-2.479 3.658-2.46 3.675.013.012.208.079.433.148.225.07.431.132.458.14.037.012.107-.075.269-.334.12-.192.23-.356.242-.363.02-.013 1.232.356 1.256.382.006.006-.002.201-.016.433a6.49 6.49 0 0 0-.02.428c.005.004.226.075.492.16.267.084.5.154.52.155.043.002.057-.297.12-2.63.028-.986.037-1.778.023-1.792-.046-.044-1.218-.402-1.312-.403Zm.353 1.051c.007.007-.01.392-.04.856-.028.464-.06.853-.07.863-.023.026-.82-.223-.82-.256 0-.038.915-1.478.93-1.463ZM17.09 17.496c-.739-.1-1.354-.666-1.632-1.502-.158-.476-.191-.85-.112-1.265.175-.91.992-1.56 2.124-1.688.467-.053.456-.056.525.128l.136.36.075.2-.311.035c-.75.085-1.202.318-1.4.721-.236.484-.045 1.335.4 1.787.162.163.213.195.406.254.27.082.506.07.866-.044.286-.09.55-.244.8-.466l.181-.16.02.108a1.16 1.16 0 0 1-.359 1.033c-.384.347-1.164.573-1.718.499Zm36.965-1.059a5.038 5.038 0 0 1-.461-.127c-.016-.016.963-4.11.99-4.136.014-.015.955.213.98.237.008.008-.21.94-.483 2.072-.352 1.454-.51 2.057-.54 2.06a5.008 5.008 0 0 1-.486-.106ZM20.536 14.43a81.636 81.636 0 0 1-.497-2.075c.032-.033 2.976-.738 2.994-.718.041.044.187.74.16.765-.014.014-.459.13-.988.258-.7.17-.962.246-.962.277 0 .042.184.805.199.824.003.005.339-.072.745-.172.406-.1.764-.185.796-.19.05-.01.07.037.156.375.053.213.086.394.073.402-.014.009-.363.098-.775.198-.412.1-.76.189-.77.196-.017.01.168.859.191.881.004.004.463-.106 1.021-.243a34.962 34.962 0 0 1 1.024-.244c.005.003.04.185.08.403.063.36.066.399.021.412-.148.042-2.903.714-2.928.714-.017 0-.26-.928-.54-2.063ZM51.6 15.885a1.6 1.6 0 0 1-.32-.1c-.336-.154-.486-.404-.721-1.204-.176-.598-.237-.76-.366-.975l-.104-.173h.206c.53 0 .85-.278.85-.74 0-.216-.103-.372-.321-.482-.115-.058-.686-.175-.714-.147-.011.012-.158.77-.325 1.684-.168.916-.312 1.67-.32 1.678-.016.017-.884-.137-.959-.17-.042-.017-.002-.27.335-2.102.21-1.145.389-2.087.396-2.093.03-.025 1.786.315 2.023.391.412.132.724.372.891.685.06.114.07.173.07.478 0 .314-.008.365-.08.515a1.09 1.09 0 0 1-.884.634l-.188.018.097.069c.148.105.357.445.567.923.264.6.412.824.638.965l.09.055-.12.05c-.145.06-.515.081-.74.041Zm-25.824-.493c-.016-.05-.711-4.02-.72-4.108-.008-.074-.006-.075.886-.234 1.035-.185 1.396-.206 1.733-.102.393.121.639.361.755.738.17.544-.04 1.1-.503 1.342-.17.09-.207.133-.114.133.129 0 .414.218.856.652.492.483.688.632.902.686.07.018.128.044.128.058 0 .035-.232.187-.378.248a1.52 1.52 0 0 1-.637.123c-.437.001-.61-.132-1.218-.936-.347-.459-.509-.637-.72-.793-.05-.037-.075-.067-.055-.068.112-.003.39-.143.527-.267.188-.169.24-.28.239-.513-.003-.418-.258-.646-.679-.604-.375.037-.563.083-.563.139 0 .028.13.782.288 1.675.158.893.288 1.637.288 1.653 0 .017-.133.054-.296.083l-.502.091c-.154.029-.21.03-.217.004Zm19.187-4.945c-.037-.01-.237.434-.918 2.035-.479 1.127-.865 2.055-.857 2.063.024.024.974.124.993.104.01-.01.086-.192.167-.405.1-.262.162-.386.193-.384.132.004 1.243.14 1.256.153.009.008.042.197.075.418.032.221.066.41.075.419.009.009.218.04.464.069.569.067.615.069.615.022 0-.039-.687-4.17-.712-4.282-.013-.059-.059-.068-.659-.131a17.784 17.784 0 0 1-.692-.082Zm.511.957a35.768 35.768 0 0 0 .112.887c.059.444.107.821.107.839 0 .017-.031.03-.069.027-.117-.006-.793-.09-.802-.1-.01-.01.586-1.548.628-1.62.013-.022.02-.033.024-.033Zm-13.935 3.159c-.115-.227-1.694-4.011-1.68-4.025a6.3 6.3 0 0 1 .584-.08c.432-.049.572-.055.589-.028.012.02.28.752.595 1.626.375 1.04.58 1.572.594 1.537.011-.03.124-.795.251-1.702.127-.907.236-1.658.243-1.67.017-.026 1.041-.135 1.064-.112.017.017-.806 4.305-.835 4.352-.01.014-.29.055-.623.091s-.636.072-.673.08c-.05.01-.077-.006-.11-.07Zm8.963-.19a.805.805 0 0 1-.508-.678c-.018-.142-.016-.146.05-.128.448.128.525.134.707.051.221-.1.221-.101.292-1.911.034-.875.063-1.592.065-1.594.017-.015.989.039 1.006.056.04.04-.103 3.227-.154 3.44-.088.368-.271.618-.538.736-.229.1-.7.115-.92.027Zm-5.026-.311a96.756 96.756 0 0 1-.036-2.136l-.018-1.886h.77c.424 0 1.12-.009 1.548-.02l.777-.02v.828h-.434c-.239 0-.703.009-1.03.02l-.596.02v.381c0 .21.009.412.018.448l.018.066.815-.018.815-.018v.828h-.632c-.347 0-.715.009-.818.02l-.186.019v.91l1.06-.02 1.06-.02v.808l-.658.02a63.5 63.5 0 0 1-1.558.02h-.898l-.018-.25Z"/></g></svg>