<svg xmlns="http://www.w3.org/2000/svg" width="65" height="49" fill="none"><g fill="#fff" fill-rule="evenodd" clip-path="url(#a)" clip-rule="evenodd" opacity=".5"><path d="M15.673 11.034c4.47-1.553 9.006-2.572 13.614-3.004.612-1.803 1.147-4.083 1.836-5.412.617-1.352 1.746-1.077 3.226.312 1.618 1.586 3.097 3.242 4.512 4.93 2.792.206 5.468.557 7.343 1.934 1.208 1.02 1.466 2.615.337 5.056a85.728 85.728 0 0 1-1.844 3.125c.448 1.313.77 2.627.913 3.94l-.181.298-1.144-3.55-3.252 4.403c2.681.204 4.965.763 7.14 1.424a17.583 17.583 0 0 0 1.486-7.093C49.483 7.737 41.674 0 32.015 0 24.596 0 18.23 4.504 15.673 11.034Zm29.776 17.617c-3.008 3.945-8.05 6.286-13.434 6.286-9.66 0-17.54-7.88-17.54-17.54 0-1.296.142-2.56.412-3.778 3.767-1.847 8.455-3.514 13.723-3.931-.642 1.677-1.533 3.217-2.595 4.661l-1.923-3.138-.144.577 1.797 2.94c-1.303 1.765-2.497 3.64-3.66 5.545-.795 1.78-1.737 3.5-.155 4.67 1.582.957 4.889.498 8.643.088.801 1.899.85 3.814 1.879 5.379.836 1.13 1.768.881 2.745.005 1.688-1.773 3.172-3.75 4.627-5.759 2.047.087 3.778.426 5.127 1.074 1.253.869 1.052 2.017.498 2.92ZM31.492 7.87a59.763 59.763 0 0 1 6.094-.104c-.663-.84-1.34-1.682-2.42-2.592-.911-.746-1.638-.692-2.238-.09-.607.837-1.07 1.777-1.436 2.786Zm9.38 2.67c.716.16 1.437.34 2.187.674.906.477 1.194 1.31 1.203 2.307-.068.995-.272 1.586-.48 2.164a48.661 48.661 0 0 0-2.91-5.145ZM29.901 23.288c-1.906.162-3.595.221-4.51-.089-1.295-.504-.976-1.755-.425-3.112l1.857-3.413a46.148 46.148 0 0 1 3.078 6.614Zm1.605 1.643a64.974 64.974 0 0 1 6.432-.322 51.524 51.524 0 0 1-2.251 2.597c-1.103 1.112-2.205 1.92-3.105.252a20.26 20.26 0 0 1-1.076-2.527Zm-.837-15.43c3.226.004 6.213.214 8.85.724 1.558 1.979 2.932 4.036 3.9 6.268-1.003 2.042-2.384 4.169-4.143 6.38-2.816-.091-5.654-.118-8.639.297l-3.527-7.023A49.048 49.048 0 0 0 30.67 9.5ZM44.167 48.26c.098.146.314.179.52.269.548.267 1.487.204 1.83-.33.224-.806-.507-1.105-.848-1.278-.71-.323-1.575-.772-1.514-1.552-.036-.629.835-1.123 1.399-1.123.498.039 1 .03 1.337.233l-.036.516c-.178-.146-.749-.322-1.096-.322-.432 0-.95.106-.964.63 0 .537.615.867 1.014 1.032.992.411 1.813 1.025 1.219 2.096-.314.486-.977.677-1.53.677-.41 0-1.061-.097-1.337-.218l.006-.63Zm-7.818-6.918c.05.074.159.09.263.136.278.135.752.104.926-.165.115-.41-.256-.56-.429-.647-.359-.163-.796-.39-.766-.784-.017-.318.422-.57.708-.57.252.02.506.017.677.119l-.018.26c-.09-.074-.38-.163-.554-.163-.219 0-.481.055-.488.32 0 .272.312.437.514.522.502.207.917.518.616 1.06-.159.245-.493.342-.774.342-.207 0-.537-.05-.677-.111l.002-.319Zm-27.1 0c.05.074.158.09.263.136.278.135.752.104.926-.165.114-.41-.256-.56-.429-.647-.359-.163-.796-.39-.766-.784-.017-.318.423-.57.707-.57.253.02.507.017.678.119l-.018.26c-.09-.074-.38-.163-.555-.163-.218 0-.481.055-.488.32 0 .272.312.437.514.522.501.207.917.518.617 1.06-.159.245-.494.342-.774.342-.208 0-.537-.05-.677-.111l.002-.319Zm29.557 7.7v-4.667h.67l2.593 3.664v-3.664h.627v4.667h-.67l-2.593-3.668v3.668h-.627Zm21.305 0v-4.667h.67l2.592 3.664v-3.664H64v4.667h-.67l-2.594-3.668v3.668h-.625Zm-23.68-.025v-4.652h.628v4.652h-.628Zm-19.718-7.292v-2.352h.318v2.352h-.318Zm40.958 7.292v-4.652h.628v4.652h-.628Zm-2.244-7.292v-2.352h.318v2.352h-.318Zm-21.65 0v-2.352h.318v2.352h-.317Zm-7.969 7.292V44.75h-1.967v-.395h4.533v.395h-1.938v4.267h-.628Zm24.068 0V44.75h-1.968v-.395h4.534v.395h-1.939v4.267h-.627Zm8.877-7.292v-2.157h-.995v-.201h2.293v.2h-.98v2.158h-.318Zm-38.715 0v-2.157h-.996v-.201h2.293v.2h-.98v2.158h-.317Zm-4.905 7.292v-4.649h2.984v.44H15.84v1.57h1.936v.435H15.84v1.765h2.45v.439h-3.156Zm17.098 0v-4.649h2.984v.44h-2.278v1.57h1.937v.435h-1.937v1.765h2.451v.439h-3.157Zm21.204 0v-4.649h2.985v.44h-2.278v1.57h1.936v.435h-1.936v1.765h2.45v.439h-3.157Zm-5.287-7.292v-2.35h1.51v.222h-1.152v.793h.979v.22h-.979v.894h1.239v.221h-1.597ZM6.152 49.017v-4.622h.702v4.15h2.448v.472h-3.15Zm45.752-7.292v-2.337h.356v2.1h1.238v.237h-1.593Zm-24.809 0v-2.337h.355v2.1h1.24v.237h-1.595ZM1.526 47.182h1.795l-.928-2.32-.867 2.32ZM0 49.017l2.032-4.644h.754l2.165 4.644h-.799l-.616-1.333H1.324l-.58 1.333H0Zm23.386-8.219h.908l-.47-1.175-.438 1.175Zm-.771.927 1.027-2.347h.382l1.095 2.347h-.404l-.312-.674h-1.12l-.292.674h-.376Zm21.788-.927h.908l-.47-1.175-.438 1.175Zm-.772.927 1.027-2.347h.382l1.095 2.347h-.404l-.312-.674h-1.118l-.294.674h-.376Zm18.628-.927h.908l-.47-1.175-.438 1.175Zm-.772.927 1.027-2.347h.382l1.094 2.347h-.402l-.313-.674h-1.118l-.293.674h-.377ZM20.262 46.58h.617c1.135 0 1.658-1.805.225-1.805h-.841v1.805Zm-.738 2.463v-4.675h2.031c.292 0 1.188.288 1.184 1.18-.003.755-.626 1.094-1.084 1.295l1.723 2.2h-.79l-1.597-2.075h-.729v2.075h-.738Zm20.852-8.55h.312c.575 0 .84-.913.114-.913h-.425v.913Zm-.373 1.246v-2.365h1.028c.147 0 .6.145.599.596-.002.382-.317.553-.548.656l.871 1.112h-.4l-.808-1.05h-.368v1.051h-.374Zm-26.68-1.246h.313c.574 0 .839-.913.114-.913h-.425v.913h-.001Zm-.373 1.246v-2.365h1.028c.147 0 .6.145.598.596-.002.382-.313.57-.542.677-.117.05-.198.039-.342.042h-.369v1.05h-.373Zm-2.448 7.278v-4.644h1.591c.323 0 .583.049.78.142.195.093.385.202.495.397.418.736-.213 1.488-.904 1.66.488.155 1.24.634 1.24 1.1.014.651-.32 1.146-.901 1.268a2.617 2.617 0 0 1-.684.078l-1.617-.001Zm.672-.439h.613c.4 0 .9-.08 1.07-.42a.884.884 0 0 0 .084-.39.837.837 0 0 0-.121-.452c-.206-.324-.78-.515-1.108-.515h-.538v1.777Zm0-2.18h.66c.314 0 .646-.125.858-.443a.715.715 0 0 0 .108-.406.809.809 0 0 0-.1-.406c-.208-.36-.604-.37-.937-.37h-.59V46.4ZM.73 41.715h.25v-2.346H.73v2.346Zm1.493 0h.251v-2.346h-.25v2.346Z"/><path d="M2.187 40.58v-.157H.96v.157h1.226Zm3.725-1.307c.588 0 1.068.581 1.068 1.292 0 .71-.48 1.29-1.068 1.29-.588 0-1.069-.58-1.069-1.29 0-.71.48-1.292 1.07-1.292Zm0 .252c.45 0 .817.467.817 1.04 0 .572-.367 1.038-.817 1.038-.45 0-.817-.466-.817-1.04 0-.572.366-1.038.817-1.038Z"/></g><defs><clipPath id="a"><path fill="#fff" d="M0 0h65v49H0z"/></clipPath></defs></svg>