<svg xmlns="http://www.w3.org/2000/svg" width="144" height="49" fill="none"><path fill="#fff" d="M119.75 14.321a1.009 1.009 0 1 0 0-2.017 1.009 1.009 0 0 0 0 2.017Zm2.071 18.259a1.009 1.009 0 1 0-.001-2.017 1.009 1.009 0 0 0 .001 2.017Zm2.968-18.259a1.009 1.009 0 1 0 0-2.017 1.009 1.009 0 0 0 0 2.017Zm0 2.969a1.009 1.009 0 1 0 0-2.018 1.009 1.009 0 0 0 0 2.018Zm0 12.21a1.009 1.009 0 1 0 0-2.018 1.009 1.009 0 0 0 0 2.018Zm0 3.08a1.009 1.009 0 1 0 0-2.018 1.009 1.009 0 0 0 0 2.018Zm3.024-18.259a1.008 1.008 0 1 0 0-2.016 1.008 1.008 0 0 0 0 2.016Zm0 2.969a1.008 1.008 0 1 0 0-2.016 1.008 1.008 0 0 0 0 2.016Zm0 3.08a1.008 1.008 0 1 0 0-2.016 1.008 1.008 0 0 0 0 2.016Zm0 6.105a1.008 1.008 0 1 0 0-2.015 1.008 1.008 0 0 0 0 2.015Zm0 3.025a1.008 1.008 0 1 0 0-2.016 1.008 1.008 0 0 0 0 2.016Zm0 3.08a1.008 1.008 0 1 0 0-2.016 1.008 1.008 0 0 0 0 2.016Zm2.969-18.259a1.008 1.008 0 1 0 0-2.017 1.008 1.008 0 0 0 0 2.017Zm0 2.969a1.009 1.009 0 1 0-.001-2.017 1.009 1.009 0 0 0 .001 2.017Zm0 3.08a1.009 1.009 0 1 0-.001-2.017 1.009 1.009 0 0 0 .001 2.017Zm0 3.024a1.009 1.009 0 1 0-.001-2.017 1.009 1.009 0 0 0 .001 2.017Zm0 3.081a1.009 1.009 0 1 0-.001-2.017 1.009 1.009 0 0 0 .001 2.017Zm0 3.025a1.008 1.008 0 1 0 0-2.017 1.008 1.008 0 0 0 0 2.017Zm0 3.08a1.009 1.009 0 1 0-.001-2.017 1.009 1.009 0 0 0 .001 2.017Zm2.968-18.259a1.009 1.009 0 1 0 0-2.017 1.009 1.009 0 0 0 0 2.017Zm0 2.969a1.009 1.009 0 1 0 0-2.018 1.009 1.009 0 0 0 0 2.018Zm0 3.08a1.009 1.009 0 1 0 0-2.018 1.009 1.009 0 0 0 0 2.018Zm0 3.024a1.009 1.009 0 1 0 0-2.017 1.009 1.009 0 0 0 0 2.017Zm0 3.081a1.009 1.009 0 1 0 0-2.017 1.009 1.009 0 0 0 0 2.017Zm0 3.025a1.009 1.009 0 1 0 0-2.018 1.009 1.009 0 0 0 0 2.018Zm0 3.08a1.009 1.009 0 1 0 0-2.018 1.009 1.009 0 0 0 0 2.018Zm3.024-15.29a1.008 1.008 0 1 0 0-2.016 1.008 1.008 0 0 0 0 2.016Zm0 3.08a1.008 1.008 0 1 0 0-2.016 1.008 1.008 0 0 0 0 2.016Zm0 3.024a1.008 1.008 0 1 0 0-2.016 1.008 1.008 0 0 0 0 2.016Zm0 3.081a1.008 1.008 0 1 0 0-2.015 1.008 1.008 0 0 0 0 2.015Zm0 3.025a1.008 1.008 0 1 0 0-2.016 1.008 1.008 0 0 0 0 2.016Zm3.078-9.13a1.008 1.008 0 1 0 0-2.016 1.008 1.008 0 0 0 0 2.016Zm0 3.024a1.008 1.008 0 1 0 0-2.016 1.008 1.008 0 0 0 0 2.016Zm0 3.081a1.008 1.008 0 1 0 0-2.015 1.008 1.008 0 0 0 0 2.015Zm3.023-3.081a1.009 1.009 0 1 0 0-2.017 1.009 1.009 0 0 0 0 2.017Zm-65.973 4.761h-.448l-.673.112a5.126 5.126 0 0 1-1.848 0c-.336-.111-.448-.448-.448-1.008V20.09h3.585c.336 0 .672-.336.672-.672v-2.52c0-.075-.038-.15-.112-.224v-.112l-.112-.113c-.112-.112-.336-.224-.448-.224h-3.585v-3.248s0-.112-.112-.112l-.112-.112h-1.008l-2.633 1.624a.616.616 0 0 0-.336.56v1.625h-3.472c-1.513-.113-2.969.448-4.145 1.4-.224.224-.448.448-.56.672v-1.288c0-.448-.336-.896-.784-.896H57.69c-.448 0-.784.336-.784.896v14.282c0 .448.336.896.784.896h2.52c.449 0 .785-.336.785-.896v-7.841c0-.56.112-1.008.336-1.512.896-1.849 3.473-1.96 4.369-1.96h3.472v7.84c-.224 2.073 1.288 4.033 3.36 4.37h1.513c.336 0 .784 0 1.176-.113.672 0 1.4-.112 1.96-.336a.842.842 0 0 0 .56-.784v-2.296c0-.616-.335-.84-.84-.84Zm-55.895-7.729-1.12-.224c-2.297-.336-4.145-.672-4.145-1.96 0-1.289 1.512-2.073 3.808-2.073 2.297 0 3.697.448 5.433 1.4.336.224.784.112 1.008-.224.337-.448.56-.896.897-1.4.112-.224.224-.448.448-.672.112-.224.224-.448.112-.672-.112-.224-.224-.448-.448-.448-2.297-1.177-4.93-1.849-7.618-1.737-2.072-.112-4.144.448-5.937 1.569-1.624 1.008-2.632 2.744-2.632 4.704 0 3.249 2.184 5.041 6.665 5.77l1.4.224c2.745.335 4.257.784 4.257 2.072s-1.624 2.072-3.92 2.072c-2.297 0-4.257-.56-6.106-1.736-.336-.224-.896-.224-1.176.112-.336.336-1.512 2.072-1.624 2.296-.224.336 0 .784.336 1.008 2.52 1.513 5.545 2.185 8.513 2.185 2.185.112 4.257-.448 6.105-1.625 1.737-1.008 2.745-2.856 2.745-4.816-.112-3.249-2.52-5.097-7.001-5.825Zm68.666 0-1.176-.224c-2.296-.336-4.144-.672-4.144-1.96 0-1.289 1.512-2.073 3.808-2.073s3.697.448 5.433 1.4c.336.224.784.112 1.008-.224.336-.448.56-.896.896-1.4.112-.224.224-.448.448-.672.112-.224.225-.448.112-.672-.112-.224-.224-.448-.448-.448-2.296-1.177-4.928-1.849-7.617-1.737-2.072-.112-4.145.448-5.993 1.625-1.624.784-2.632 2.632-2.632 4.48 0 3.249 2.184 5.041 6.665 5.77l1.4.223c2.744.337 4.257.785 4.257 2.073 0 1.288-1.624 2.072-3.92 2.072-2.297 0-4.258-.56-6.106-1.736-.336-.224-.896-.224-1.176.112-.336.336-1.512 2.072-1.624 2.296-.224.336 0 .784.336 1.008 2.52 1.513 5.545 2.185 8.401 2.185 2.184.112 4.257-.448 6.105-1.625 1.736-1.008 2.745-2.856 2.745-4.816.168-3.08-2.129-4.93-6.778-5.657Zm18.876-3.976a11.499 11.499 0 0 0-2.744-.337c-4.257-.336-7.953 2.857-8.29 7.225v.896c0 5.041 3.361 8.29 8.626 8.29 5.265 0 4.369-.672 6.105-1.96.224-.113.336-.448.336-.673 0-.224-.112-.448-.336-.672-1.008-1.008-1.4-1.288-1.4-1.4-.224-.224-.448-.224-.672-.224-.224 0-.336.112-.56.224l-.112.112c-1.009.56-2.185.784-3.361.896-2.408 0-4.145-1.176-4.369-2.968h11.146a.766.766 0 0 0 .784-.784v-.672c.112-1.849-.448-3.697-1.4-5.153-.84-1.457-2.128-2.353-3.753-2.8Zm1.177 5.936h-7.954a3.867 3.867 0 0 1 4.145-2.632c2.184 0 3.585.952 3.809 2.632Zm-72.589 5.769H36.8l-.785.112a5.121 5.121 0 0 1-1.848 0c-.336-.112-.448-.448-.448-1.008V20.09h3.473c.448 0 .784-.336.784-.896v-2.017c0-.448-.336-.896-.784-.896h-3.36v-3.08c0-.448-.337-.896-.785-.896s-.336 0-.448.112l-2.633 1.624c-.224.112-.336.448-.336.672V27.82c-.224 2.073 1.289 4.033 3.36 4.369h1.513c.336 0 .784 0 1.176-.112.672 0 1.4-.112 1.96-.336a.842.842 0 0 0 .56-.784v-2.072c-.28-.393-.615-.729-1.063-.729Zm16.689-11.874h-2.52c-.448 0-.784.336-.784.896v.112c-1.177-.784-2.409-1.176-3.81-1.176h-.111c-2.072-.112-4.145.672-5.77 1.96a8.307 8.307 0 0 0-2.408 6.218c-.112 2.296.785 4.48 2.297 6.104 1.568 1.457 3.528 2.129 5.713 2.129h.224c1.4 0 2.744-.448 3.809-1.288v.224c0 .448.335.896.784.896h2.52c.448 0 .784-.336.784-.896V17.233c.168-.56-.28-.952-.728-.952Zm-11.09 9.578.112-.112V22.89c.224-.784.56-1.512 1.176-1.96l.224-.224.113-.112c.111-.112.224-.112.224-.224.111-.112.224-.112.335-.224.225-.112.449-.224.785-.224s.224-.112.336-.112h.896c1.4-.112 2.632.56 3.473 1.624v5.265c-.785 1.008-2.073 1.736-3.473 1.624-1.176 0-2.184-.336-3.08-1.176l-.113-.112v-.168l-.168-.112-.112-.112-.112-.112c-.112-.224-.336-.448-.336-.672 0-.224 0-.112-.112-.224l-.168.224ZM2.638 32.58a2.52 2.52 0 1 0 0-5.04 2.52 2.52 0 0 0 0 5.04Z" opacity=".5"/></svg>