<svg xmlns="http://www.w3.org/2000/svg" width="81" height="49" fill="none"><path fill="#fff" fill-opacity=".5" d="M17.543 6.124v8.6h-.694v-7.64h-.023l-3.149 7.635h-.649L9.885 7.112h-.022v7.612H9.18v-8.6h1.02l3.16 7.658h.023l3.143-7.658h1.016Zm7.037 5.903h-4.177l-1.078 2.697h-.74l3.511-8.6h.824l3.499 8.6h-.762l-1.078-2.697Zm-.244-.62-1.828-4.572h-.023l-1.834 4.571h3.685Zm6.61-.458h-2.799v3.775h-.694v-8.6h3.222c1.592 0 2.754.852 2.754 2.387 0 1.151-.705 1.958-1.811 2.263l2.015 3.95h-.785l-1.902-3.775Zm-2.799-.615h2.41c1.264 0 2.173-.638 2.173-1.8 0-1.163-.864-1.795-2.128-1.795h-2.455v3.595Zm9.695.356h-2.015v4.029h-.694V6.124h.694v3.95h1.97l2.584-3.95h.83l-2.788 4.21 2.923 4.39h-.84l-2.664-4.035Zm4.713 4.034v-8.6h5.316v.615h-4.628v3.335h4.075v.615h-4.075v3.415h4.701v.615l-5.39.005Zm9.175 0V6.74h-3.16v-.615h7.01v.615h-3.161v7.985h-.688Zm4.98 0v-8.6h.695v8.6h-.694Zm9.406-8.6v8.6h-.615l-5.39-7.471h-.022v7.471h-.683v-8.6h.717l5.288 7.348h.022V6.124h.683Zm8.882 4.278v4.323h-.66l-.023-1.626h-.023c-.434.931-1.354 1.75-2.844 1.75-2.387 0-3.753-2.004-3.753-4.425C67.695 7.958 69.14 6 71.601 6c1.422 0 2.505.66 3.21 1.738l-.524.378c-.593-.987-1.524-1.512-2.664-1.512-1.936 0-3.228 1.535-3.228 3.832 0 2.24 1.242 3.809 3.093 3.809 1.659 0 2.821-1.242 2.821-2.856 0-.158 0-.282-.011-.383H72.09v-.604h2.907Zm-60.88 25.587c.853.26 1.592.84 1.592 1.992 0 1.523-1.298 2.41-2.98 2.41H9V31.79h3.775c1.761 0 2.743.943 2.743 2.24 0 1.027-.615 1.603-1.4 1.936v.023Zm-3.538-2.924v2.365h2.15c.65 0 1.185-.356 1.185-1.174 0-.807-.536-1.185-1.185-1.185h-2.15v-.006Zm2.32 6.044c.66 0 1.207-.383 1.207-1.207 0-.824-.547-1.208-1.207-1.208h-2.32v2.421h2.32v-.006Zm7.44-2.189h-1.846v3.47h-1.58v-8.6h3.719c1.693 0 2.878.909 2.878 2.466 0 1.174-.683 1.947-1.66 2.286l1.858 3.854h-1.756L20.34 36.92Zm-1.846-1.281h2.116c.706 0 1.287-.395 1.287-1.276 0-.88-.581-1.286-1.287-1.286h-2.116v2.562Zm11.512 2.646h-3.583l-.75 2.105h-1.626l3.233-8.6h1.913l3.234 8.6h-1.682l-.739-2.105Zm-.463-1.28-1.32-3.697H28.2l-1.32 3.696h2.663Zm3.152 2.229.954-1.033a3.375 3.375 0 0 0 2.477 1.044c1.197 0 1.733-.468 1.733-1.196 0-.796-.75-1.01-2.037-1.31C34.388 36.39 33 35.9 33 34.23c0-1.49 1.14-2.563 3.183-2.563 1.332 0 2.353.434 3.126 1.196l-.886 1.044c-.592-.603-1.343-.976-2.263-.976-1.044 0-1.557.491-1.557 1.14 0 .785.716.954 1.98 1.264 1.513.384 2.867.852 2.867 2.55 0 1.547-1.185 2.62-3.335 2.62-1.484.005-2.59-.44-3.42-1.27Zm7.875 1.156v-8.6h1.592v8.6H40.57Zm3.22-8.6h1.59v7.302h4.154v1.298h-5.745v-8.6ZM9.18 27.292v-8.37h.643l5.49 7.162v-7.161h.706v8.369h-.643l-5.49-7.173v7.173H9.18Zm14.715-8.369v.683H19.04v3.132h4.492v.683H19.04v3.188h4.938v.683h-5.643v-8.37h5.559Zm7.701 0v.683h-3.058v7.686h-.706v-7.686h-3.059v-.683h6.823Zm11.874 0-2.652 8.369h-.79l-2.297-7.15-2.308 7.15h-.779l-2.652-8.37h.779l2.269 7.484 2.364-7.45h.643l2.37 7.45 2.27-7.483h.784Zm5.03-.13c2.917 0 4.35 2.19 4.35 4.317 0 2.128-1.433 4.317-4.35 4.317-2.918 0-4.352-2.19-4.352-4.317-.005-2.133 1.434-4.317 4.351-4.317Zm0 .672c-2.45 0-3.635 1.828-3.635 3.645s1.185 3.646 3.634 3.646c2.45 0 3.635-1.829 3.635-3.646s-1.185-3.645-3.635-3.645Zm6.086 7.827v-8.37h3.217c1.456 0 3.058.622 3.058 2.49 0 1.602-1.196 2.285-2.415 2.437l2.98 3.443h-.886l-2.918-3.386h-2.33v3.386h-.706Zm.717-4.063h2.545c1.1 0 2.297-.418 2.297-1.817 0-1.4-1.197-1.806-2.297-1.806h-2.545v3.623Zm7.541 4.063v-8.37h.705v3.754h2.19l2.703-3.753h.813l-2.93 4.074 3.217 4.29h-.824l-2.951-3.945h-2.212v3.944h-.711v.006Z"/></svg>