<svg xmlns="http://www.w3.org/2000/svg" width="254" height="31" fill="none"><g fill="#fff" clip-path="url(#a)" opacity=".5"><path d="M.46 12.25C.46 6.006 5.694.946 11.939.946c3.445 0 5.9 1.356 7.751 3.122l-2.196 2.175c-1.313-1.25-3.1-2.218-5.555-2.218-4.544 0-8.096 3.66-8.096 8.204 0 4.543 3.552 8.204 8.096 8.204 2.95 0 4.63-1.185 5.706-2.261.883-.883 1.464-2.154 1.68-3.876h-7.386v-3.08h10.4c.108.56.172 1.207.172 1.939 0 2.325-.624 5.189-2.67 7.213-2.002 2.067-4.543 3.165-7.902 3.165C5.693 23.533.46 18.473.46 12.25Zm30.425-3.251c-4.026 0-7.3 3.057-7.3 7.278 0 4.199 3.274 7.278 7.3 7.278 4.027 0 7.3-3.08 7.3-7.278 0-4.22-3.273-7.278-7.3-7.278Zm0 11.67c-2.196 0-4.112-1.808-4.112-4.414 0-2.627 1.895-4.414 4.112-4.414 2.197 0 4.113 1.787 4.113 4.414 0 2.606-1.916 4.414-4.113 4.414Zm15.93-11.67c-4.026 0-7.3 3.057-7.3 7.278 0 4.199 3.274 7.278 7.3 7.278 4.027 0 7.3-3.08 7.3-7.278 0-4.22-3.273-7.278-7.3-7.278Zm0 11.67c-2.196 0-4.113-1.808-4.113-4.414 0-2.627 1.895-4.414 4.113-4.414 2.218 0 4.113 1.787 4.113 4.414 0 2.606-1.917 4.414-4.113 4.414ZM66.37 9.43v1.184h-.108c-.71-.861-2.088-1.637-3.832-1.637-3.64 0-6.977 3.187-6.977 7.3 0 4.07 3.338 7.256 6.977 7.256 1.744 0 3.122-.775 3.832-1.658h.108v1.055c0 2.778-1.486 4.264-3.876 4.264-1.96 0-3.165-1.4-3.66-2.584l-2.778 1.163c.797 1.938 2.928 4.306 6.46 4.306 3.746 0 6.912-2.196 6.912-7.58V9.43H66.37Zm-3.66 11.24c-2.197 0-4.049-1.852-4.049-4.393 0-2.563 1.852-4.436 4.049-4.436 2.174 0 3.875 1.873 3.875 4.436.022 2.562-1.7 4.392-3.875 4.392Zm12.094 2.434h-3.187V1.721h3.187v21.381Zm8.769-2.434c-1.637 0-2.778-.754-3.532-2.197l9.733-4.026-.323-.819c-.603-1.636-2.455-4.63-6.223-4.63-3.746 0-6.869 2.95-6.869 7.279 0 4.07 3.08 7.278 7.214 7.278 3.337 0 5.254-2.046 6.072-3.23l-2.476-1.658c-.84 1.206-1.96 2.002-3.596 2.002Zm-.237-8.872c1.27 0 2.347.624 2.691 1.55l-6.502 2.692c-.087-2.8 2.174-4.242 3.81-4.242Z"/><path fill-opacity=".541" d="M104.325 3.055c.933 0 1.699.158 2.296.476l-.7 2.267a3.334 3.334 0 0 0-1.512-.335c-.635 0-1.157.223-1.568.671-.392.43-.588 1.008-.588 1.736v1.736h3.584v2.352h-3.584v11.367h-2.576V11.958h-2.575V9.606h2.575V7.618c0-1.362.43-2.463 1.288-3.303.878-.84 1.997-1.26 3.36-1.26Zm2.347 13.411c0-2.11.662-3.855 1.988-5.236 1.344-1.381 3.033-2.072 5.067-2.072 2.035 0 3.715.69 5.04 2.072 1.344 1.381 2.016 3.127 2.016 5.236 0 2.128-.672 3.873-2.016 5.235-1.325 1.382-3.005 2.072-5.04 2.072-2.034 0-3.723-.69-5.067-2.072-1.326-1.38-1.988-3.126-1.988-5.235Zm2.576 0c0 1.474.429 2.669 1.288 3.583.858.915 1.922 1.372 3.191 1.372 1.27 0 2.334-.457 3.192-1.372.859-.914 1.288-2.109 1.288-3.583 0-1.456-.429-2.641-1.288-3.556-.877-.933-1.941-1.4-3.192-1.4-1.25 0-2.314.467-3.191 1.4-.859.915-1.288 2.1-1.288 3.556Zm16.203 6.859h-2.576V9.605h2.464v2.24h.112c.261-.727.793-1.343 1.596-1.847.821-.523 1.624-.784 2.408-.784.746 0 1.381.112 1.903.336l-.784 2.492c-.317-.131-.821-.196-1.511-.196-.971 0-1.82.392-2.548 1.176-.71.784-1.064 1.698-1.064 2.743v7.56Zm25.784-5.347c0 1.755-.644 3.164-1.932 4.228-1.307 1.045-2.893 1.568-4.76 1.568-1.661 0-3.126-.486-4.396-1.456-1.269-.97-2.146-2.296-2.631-3.976l2.463-1.008c.168.597.402 1.139.7 1.624.299.485.644.905 1.036 1.26.411.336.859.607 1.344.812.486.186.999.28 1.54.28 1.176 0 2.137-.299 2.884-.896.747-.616 1.12-1.428 1.12-2.436 0-.84-.308-1.559-.924-2.156-.579-.579-1.661-1.138-3.248-1.68-1.605-.578-2.604-.97-2.996-1.176-2.127-1.082-3.191-2.678-3.191-4.787 0-1.475.588-2.735 1.763-3.78 1.195-1.045 2.66-1.568 4.396-1.568 1.531 0 2.856.392 3.976 1.176 1.12.765 1.866 1.727 2.24 2.884l-2.408 1.008c-.224-.747-.672-1.363-1.344-1.848-.653-.504-1.456-.756-2.408-.756-1.008 0-1.857.28-2.548.84-.69.522-1.036 1.204-1.036 2.044 0 .69.271 1.288.812 1.792.598.504 1.895 1.1 3.892 1.791 2.035.691 3.481 1.54 4.34 2.548.877.99 1.316 2.212 1.316 3.668Zm7.366 5.572c-1.12 0-2.053-.345-2.8-1.036-.728-.69-1.101-1.652-1.12-2.884v-7.67h-2.408V9.607h2.408v-4.2h2.576v4.2h3.36v2.352h-3.36v6.831c0 .915.177 1.54.532 1.876a1.76 1.76 0 0 0 1.204.476c.205 0 .401-.018.588-.056.205-.056.392-.121.56-.196l.812 2.296c-.672.243-1.456.364-2.352.364Zm6.067-4.425c0 .672.28 1.232.84 1.68.578.448 1.25.672 2.015.672 1.083 0 2.044-.4 2.884-1.204.859-.802 1.288-1.745 1.288-2.827-.802-.635-1.922-.952-3.36-.952-1.045 0-1.922.252-2.631.756-.691.504-1.036 1.129-1.036 1.875Zm3.331-9.967c1.904 0 3.407.514 4.508 1.54 1.101 1.008 1.652 2.399 1.652 4.172v8.455h-2.464v-1.904h-.112c-1.064 1.568-2.482 2.352-4.256 2.352-1.511 0-2.781-.448-3.807-1.344-1.008-.896-1.512-2.016-1.512-3.36 0-1.418.532-2.547 1.596-3.387 1.082-.84 2.52-1.26 4.311-1.26 1.531 0 2.791.28 3.78.84v-.588c0-.896-.354-1.652-1.064-2.268a3.618 3.618 0 0 0-2.492-.952c-1.437 0-2.575.607-3.415 1.82l-2.268-1.428c1.25-1.792 3.098-2.688 5.543-2.688Zm25.134 14.392c-1.12 0-2.053-.345-2.799-1.036-.728-.69-1.102-1.652-1.12-2.884v-7.67h-2.408V9.607h2.408v-4.2h2.575v4.2h3.36v2.352h-3.36v6.831c0 .915.178 1.54.532 1.876a1.76 1.76 0 0 0 1.204.476c.206 0 .402-.018.588-.056a3.85 3.85 0 0 0 .56-.196l.812 2.296c-.672.243-1.456.364-2.352.364ZM177.062 9.607h2.464v2.24h.112c.766-1.755 2.343-2.632 4.732-2.632l.532.056v2.688l-1.148-.112c-1.195 0-2.184.373-2.968 1.12-.765.728-1.148 1.66-1.148 2.8v7.559h-2.576V9.606Zm32.613 13.719h-2.464v-1.904h-.112c-.392.672-.999 1.232-1.82 1.68a5.1 5.1 0 0 1-2.52.671c-1.68 0-2.977-.476-3.892-1.427-.896-.971-1.344-2.343-1.344-4.116V9.606h2.576v8.456c.056 2.24 1.186 3.36 3.388 3.36 1.027 0 1.885-.411 2.576-1.232.69-.84 1.036-1.839 1.036-2.996V9.606h2.576v13.72Zm9.875-1.905c1.232 0 2.268-.466 3.108-1.4.84-.914 1.26-2.1 1.26-3.555 0-1.438-.42-2.623-1.26-3.556-.84-.933-1.876-1.4-3.108-1.4-1.25 0-2.296.467-3.136 1.4-.821.933-1.231 2.118-1.231 3.556 0 1.456.41 2.65 1.231 3.583.84.915 1.886 1.372 3.136 1.372Zm.42 2.352c-1.008 0-1.932-.215-2.772-.644-.821-.43-1.455-.998-1.903-1.708h-.112l.112 1.904v6.048h-2.576V9.606h2.464v1.904h.112c.448-.71 1.082-1.278 1.903-1.708.84-.43 1.764-.644 2.772-.644 1.811 0 3.341.71 4.592 2.128 1.288 1.437 1.932 3.164 1.932 5.18 0 2.034-.644 3.76-1.932 5.18-1.251 1.418-2.781 2.127-4.592 2.127Zm19.214-4.256c0 1.195-.522 2.203-1.568 3.024-1.045.822-2.361 1.232-3.947 1.232-1.382 0-2.595-.354-3.64-1.064a6.025 6.025 0 0 1-2.24-2.855l2.296-.98c.336.82.821 1.465 1.456 1.931a3.685 3.685 0 0 0 2.128.672c.821 0 1.502-.177 2.044-.532.559-.354.839-.774.839-1.26 0-.877-.671-1.52-2.015-1.931l-2.352-.588c-2.669-.672-4.004-1.96-4.004-3.864 0-1.25.504-2.25 1.512-2.996 1.027-.765 2.333-1.148 3.92-1.148 1.213 0 2.305.29 3.275.868.99.579 1.68 1.353 2.072 2.324l-2.296.952c-.261-.579-.69-1.027-1.287-1.344-.579-.336-1.232-.504-1.96-.504a3.38 3.38 0 0 0-1.82.504c-.523.336-.784.747-.784 1.232 0 .784.737 1.344 2.212 1.68l2.072.532c2.725.672 4.087 2.044 4.087 4.115Z"/></g><defs><clipPath id="a"><path fill="#fff" d="M0 0h254v30.825H0z"/></clipPath></defs></svg>