<svg xmlns="http://www.w3.org/2000/svg" width="94" height="39" fill="none"><g fill="#fff" clip-path="url(#a)" opacity=".5"><path d="M92.301 14.462 79.113 1.27a4.351 4.351 0 0 0-6.143 0l-.221.22a4.326 4.326 0 0 0-1.179 2.172 4.346 4.346 0 0 1 3.973 1.178l10.439 10.44a4.632 4.632 0 0 1 0 6.554L75.54 32.274a4.351 4.351 0 0 1-6.147 0l-.217-.22a4.217 4.217 0 0 1-.841-1.185 13.045 13.045 0 0 0 5.813 5.813c.052.025.108.052.16.074a4.35 4.35 0 0 0 4.8-.913L92.3 22.652a5.793 5.793 0 0 0 .002-8.19Z"/><path d="m81.218 16.098-8.472-8.465a4.342 4.342 0 0 1 0-6.142l.221-.22A4.359 4.359 0 0 1 74.15.43a13.065 13.065 0 0 0-5.813 5.812c-.025.055-.05.109-.072.162a4.347 4.347 0 0 0 .913 4.802l5.716 5.714a2.32 2.32 0 0 1 0 3.275l-5.716 5.716a4.352 4.352 0 0 0 0 6.144l.217.22a4.348 4.348 0 0 0 2.173 1.177 4.345 4.345 0 0 1 1.178-3.973l8.472-8.47a3.473 3.473 0 0 0 0-4.91Z"/><path d="M72.749 1.49a4.326 4.326 0 0 0-1.179 2.173 4.346 4.346 0 0 1 3.973 1.178l10.439 10.44a4.622 4.622 0 0 1 1.358 3.277H94a5.767 5.767 0 0 0-1.697-4.096L79.115 1.27a4.351 4.351 0 0 0-6.143 0l-.223.22Zm-3.355 30.785a4.347 4.347 0 0 0 2.173 1.176 4.345 4.345 0 0 1 1.179-3.972l8.471-8.47a3.46 3.46 0 0 0 1.017-2.452H75.57a2.31 2.31 0 0 1-.676 1.637l-5.716 5.716a4.352 4.352 0 0 0 0 6.144l.216.22Zm-64.347-7.16V5.762h5.309c3.81 0 6.207 1.82 6.22 4.37v.983c-.029 1.736-1.132 3.137-3.07 3.838 2.37.672 3.752 2.326 3.763 4.423v.907c0 2.776-2.413 4.83-6.225 4.83l-5.997.002Zm1.643-9.38v7.94h4.285c2.886 0 4.632-1.43 4.642-3.416v-1.02c0-2.045-1.738-3.505-4.624-3.505l-4.303.002Zm0-8.6v7.23h3.592c2.886 0 4.637-1.322 4.652-3.139v-1.039c-.003-1.764-1.734-3.051-4.62-3.051H6.69Zm15.012 17.98h-1.6v-14.85h1.6v2.075a6.344 6.344 0 0 1 4.95-2.27l.018 1.402c-2.915 0-4.94 1.429-4.968 3.473v10.17Zm17.376 0h-1.54v-1.653a5.843 5.843 0 0 1-4.365 1.848c-2.83 0-4.826-1.653-4.81-4.033l-.004-7.173c.018-2.383 1.97-4.035 4.826-4.035a5.72 5.72 0 0 1 4.353 1.88v-1.683h1.539v14.85Zm-1.57-3.924v-7.004c.018-1.651-1.61-2.828-3.85-2.828-2.211 0-3.724 1.177-3.734 2.745l-.023 7.173c-.004 1.568 1.509 2.744 3.72 2.744 2.246 0 3.868-1.176 3.886-2.83Zm4.557-10.925h10.168l.014 1.091-8.473 12.466h8.344l.025 1.292H41.835l-.015-1.092 8.445-12.465h-8.208l.008-1.292Zm12.88 0h1.602v14.849h-1.602v-14.85Zm9.212 14.85h-.393c-2.297 0-3.619-1.206-3.623-2.97V5.506h1.62V22.15c0 1.007.607 1.677 1.979 1.677h.422l-.005 1.29ZM3.256 33.382h-.473v-.504a1.73 1.73 0 0 1-1.312.565c-.862 0-1.47-.504-1.466-1.227L0 30.033a1.301 1.301 0 0 1 1.467-1.227 1.725 1.725 0 0 1 1.316.57v-.511h.476l-.003 4.517Zm-.473-1.193v-2.131c.005-.504-.49-.862-1.172-.862-.681 0-1.132.357-1.135.834v2.183c0 .477.46.834 1.133.834.682.002 1.17-.354 1.174-.858Zm3.883 1.193h-.383c-.69 0-1.196-.383-1.192-.937v-3.188h-.99v-.393h.988v-.996h.482v.996h1.095l-.01.393H5.571v3.19c-.005.324.292.544.701.544h.384l.01.391Zm5.816-2.712c0-.792-.656-1.344-1.604-1.344-.915 0-1.57.49-1.572 1.291a1.264 1.264 0 0 0 .778 1.165l2.106 1.034a1.729 1.729 0 0 1 1.005 1.584c0 1.123-.954 1.838-2.277 1.838-1.384 0-2.336-.768-2.334-1.883l-.006-.303h.614l.007.303c0 .814.68 1.365 1.71 1.365.97 0 1.667-.5 1.675-1.303a1.267 1.267 0 0 0-.778-1.166l-2.093-1.018a1.742 1.742 0 0 1-1.024-1.584c0-1.135.924-1.844 2.193-1.844 1.312 0 2.212.771 2.216 1.864v.27h-.616v-.27Zm6.006 5.497h-.148c-.852 0-1.347-.446-1.348-1.104v-6.185h.584v6.185c0 .376.247.626.756.626h.156v.478Zm1.057-5.517h.582v5.514h-.583V30.65Zm-.006-1.647h.582l-.007.762h-.574v-.762Zm5.677 3.146c0-.647-.598-1.092-1.442-1.092-.843 0-1.454.448-1.454 1.092v2.518c-.01.646.587 1.092 1.452 1.092.844 0 1.444-.447 1.454-1.092l-.005-.345h.575l.006.314c-.003.947-.844 1.602-2.03 1.602-1.187 0-2.041-.655-2.038-1.602V32.18c.004-.947.845-1.604 2.031-1.604 1.186 0 2.033.657 2.03 1.604l.008.31h-.574l-.013-.34Zm8.234 4.018h-.575v-5.515h.575v.603a2.13 2.13 0 0 1 1.608-.676c1.052 0 1.797.574 1.794 1.47v4.121h-.574v-4.125c0-.586-.574-.991-1.389-.991-.841 0-1.436.436-1.442 1.05l.002 4.063Zm9.803-7.289-2.47 7.29h-.645l-2.466-7.29h.635l2.15 6.518 2.15-6.518h.646Zm4.708 7.29h-.574l-.004-.616a2.13 2.13 0 0 1-1.608.69c-1.053 0-1.795-.613-1.79-1.5V32.08c.006-.885.722-1.5 1.784-1.5a2.113 2.113 0 0 1 1.614.698l.004-.625h.575l-.001 5.516Zm-.574-1.456-.004-2.607c.005-.614-.6-1.05-1.436-1.05-.821 0-1.388.436-1.388 1.021v2.664c-.003.585.564 1.02 1.383 1.02.835 0 1.437-.435 1.443-1.048h.002Zm3.772 1.455h-.145c-.854 0-1.347-.446-1.35-1.104v-6.185h.592v6.185c0 .376.239.626.75.626h.154l-.001.478Zm2.552 0h-.145c-.853 0-1.346-.446-1.347-1.104v-6.185h.59v6.185c0 .376.239.626.746.626h.155l.001.478Zm5.005-1.53c0 .947-.844 1.602-2.03 1.602-1.187 0-2.069-.655-2.069-1.602V32.18c.004-.947.876-1.604 2.062-1.604 1.187 0 2.034.657 2.029 1.604v1.447h-3.473v1.04c-.012.647.585 1.092 1.45 1.092.843 0 1.444-.446 1.454-1.092v-.218h.574l.003.188Zm-3.48-2.488v.998h2.89v-.998c0-.647-.593-1.091-1.436-1.091-.853-.003-1.454.444-1.454 1.091Zm8.32 2.624.01-.062V30.65h.574v6.09c.006.948-.828 1.614-1.993 1.614-1.126 0-1.991-.603-1.983-1.478v-.103h.575v.103c0 .584.587.999 1.412.999.833 0 1.408-.46 1.408-1.102l.005-1.207a2.14 2.14 0 0 1-1.596.675c-1.063 0-1.806-.613-1.8-1.5v-4.09h.58v4.09c0 .585.555 1.02 1.378 1.02.792 0 1.388-.405 1.43-.986Zm-48.87-4.123h.582v5.514h-.582V30.65Zm-.005-1.647h.582l-.009.762h-.574v-.762Zm14.546 7.235c1.186 0 2.042-.655 2.037-1.602V32.18c-.005-.947-.847-1.604-2.032-1.604s-2.042.657-2.037 1.604v2.457c.004.947.845 1.602 2.032 1.602Zm-1.445-4.09c0-.647.598-1.091 1.44-1.091.854 0 1.456.447 1.456 1.091v2.518c.01.647-.59 1.092-1.452 1.092-.843 0-1.436-.446-1.444-1.092v-2.518Zm28.765-26.31h-1.602v2.046h1.602V5.838Z"/></g><defs><clipPath id="a"><path fill="#fff" d="M0 0h94v38.354H0z"/></clipPath></defs></svg>