<svg xmlns="http://www.w3.org/2000/svg" width="193" height="50" fill="none"><path fill="#fff" d="M41.672 13.845c-1.528.723-2.112 1.417-5.585 6.891-4.502 7.141-4.89 7.836-5.057 9.114-.39 3.668 3.112 6.78 6.752 5.974 2.362-.528 2.5-.694 7.308-8.197 4.195-6.53 3.806-6.03 4.279-5.502.25.278.806 1.056 1.223 1.751l.805 1.25 1.306-.444 1.334-.417-1.695-2.695-1.667-2.696.834-1.222c.916-1.306 1.305-1.556 2.584-1.556 1.055 0 2.195.667 2.778 1.611.612 1.056 5.363 8.503 6.502 10.254 1.39 2.084 1.223 3.918-.444 4.89-1.779 1.056-2.973.445-5.002-2.612-1.778-2.612-2.64-3.223-4.334-2.945-1.307.222-1.557.472-3.363 3.14-1.861 2.806-2.862 3.334-4.807 2.5-.333-.139-.611.14-1.084.945-.333.611-.555 1.223-.444 1.362.083.139.806.417 1.611.583 2.807.64 4.752-.444 7.003-3.918.694-1.055 1.417-1.917 1.64-1.917.221 0 1.027 1 1.805 2.195 1.584 2.473 2.418 3.196 4.28 3.668 3.362.834 6.835-1.973 6.863-5.474 0-1.306-.75-2.862-3.112-6.502-.834-1.306-2.251-3.529-3.168-4.974-2.14-3.39-3.056-4.446-4.418-5.057-2.14-1-4.363-.556-6.113 1.14l-1.14 1.11-1.166-1.083c-1.779-1.723-4.196-2.14-6.308-1.167Zm3.751 2.723c.75.5 1.167 1 1.667 1.917.278.5 0 1.056-2.14 4.363-1.333 2.084-3.195 4.946-4.084 6.363-2.112 3.307-2.556 3.779-3.723 4.001-1.195.223-2.612-.444-3.085-1.445-.722-1.639-.722-1.639 5.502-11.364 1.14-1.779 2.362-3.474 2.751-3.78.834-.666 2.195-.694 3.112-.055Zm33.12.639c-.362.167-1.056.611-1.584 1l-.973.723v-.861c0-.862 0-.862-1.528-.862H72.93v15.005h3.334v-4.974c0-4.696.028-5.002.64-5.89 1.583-2.363 5.501-1.835 5.918.805.083.556.166 3.029.194 5.474l.056 4.446h3.334l.14-5.14c.166-5.752.25-6.114 2.028-6.808 1.361-.556 1.806-.528 2.917.139 1.5.917 1.723 1.861 1.723 7.224v4.724h3.334v-5.224c0-2.862-.139-5.668-.305-6.252-.361-1.306-1.75-2.945-2.946-3.418-1.083-.472-3.89-.5-5.001-.083-.417.139-1.167.667-1.668 1.14l-.889.86-.806-.86c-.444-.501-1.167-1.001-1.556-1.168-.916-.333-3.973-.333-4.834 0Zm25.905.251a8.11 8.11 0 0 0-3.835 3.695c-.583 1.167-.722 1.834-.722 3.557 0 2.556.833 4.474 2.584 5.974 2.862 2.473 8.002 2.39 10.781-.139l1.223-1.111-.695-.528c-1.528-1.223-1.89-1.306-2.612-.5-.639.694-2.223 1.306-3.39 1.306-1.612 0-3.418-1.112-4.168-2.557-.834-1.611-.945-1.584 5.53-1.667l5.89-.083-.083-1.5c-.194-4.141-3.223-6.975-7.391-6.975-1.306 0-2.362.194-3.112.528Zm5.529 2.695c.639.445 1.862 2.417 1.862 2.973 0 .111-1.945.195-4.307.195-3.946 0-4.307-.056-4.307-.5 0-.779 1.278-2.418 2.279-2.946 1.194-.611 3.473-.472 4.473.278Zm14.08-2.918a9.844 9.844 0 0 0-1.584.972l-.916.695v-.834c0-.86 0-.86-1.529-.86H118.5v15.004h3.334v-4.724c0-5.502.167-6.113 2.029-6.974.639-.278 1.445-.528 1.806-.528.556 0 .611-.14.611-1.529 0-1.472-.028-1.528-.75-1.5-.445 0-1.084.139-1.473.278Zm8.869-.028c-1.278.389-3.001 1.723-3.835 2.973-3.001 4.53-.778 10.837 4.252 12.06 1.806.444 4.751.194 6.14-.5 1.223-.64 2.64-1.862 2.64-2.28 0-.138-.528-.638-1.195-1.055l-1.167-.806-.611.75c-1.195 1.445-4.196 1.695-6.141.528-.778-.472-2-2.334-2-3.056 0-.167 2.028-.278 5.974-.278h5.974v-1.25c0-2.001-.945-4.113-2.501-5.502-.722-.667-1.834-1.362-2.445-1.529-1.223-.36-3.974-.416-5.085-.055Zm4.473 2.723c1.029.5 2.223 2.056 2.223 2.862 0 .5-.305.528-4.334.528h-4.307l.166-.64c.778-2.639 3.807-3.973 6.252-2.75Zm13.257-2.61c-3.251 1.166-5.085 3.861-5.03 7.53.028 4.167 2.918 7.224 7.169 7.557 2.418.195 4.446-.416 6.141-1.917 1.751-1.556 2.445-3.14 2.473-5.78.028-1.75-.083-2.334-.75-3.667-.834-1.695-2.557-3.196-4.335-3.807-1.278-.417-4.362-.361-5.668.083Zm4.473 2.806c1.667.36 2.918 2.306 2.946 4.612.027 2.779-1.806 4.696-4.557 4.696-2.723 0-4.53-1.862-4.53-4.668 0-3.64 2.418-5.474 6.141-4.64Z" opacity=".5"/></svg>