<svg xmlns="http://www.w3.org/2000/svg" width="114" height="49" fill="none"><g fill="#fff" clip-path="url(#a)" opacity=".5"><path d="M19.385 8c.084.046.147.105.217.17l.046.043c.14.133.277.269.412.407.085.087.172.17.264.249.146.126.28.263.414.4.096.097.192.19.294.279.146.125.278.261.412.398.096.096.192.19.295.278.145.125.277.262.411.399.096.096.192.19.295.278.145.125.277.261.412.398.095.096.19.19.293.277.152.132.29.275.431.419.118.118.238.23.364.34.124.11.238.229.353.347.095.096.191.19.294.278.145.125.278.262.412.398.095.097.191.19.294.279.145.125.278.261.412.398.095.096.191.19.294.278.145.125.278.262.412.399.095.096.192.19.294.278.145.125.278.262.412.398.096.097.192.19.294.279.145.125.278.261.412.398.096.096.192.19.294.278.145.125.278.262.412.398.095.097.191.19.294.278.152.131.29.275.431.418.118.119.238.231.364.34.124.11.237.23.353.347.095.097.191.19.294.279.145.125.278.261.412.398.095.096.191.19.294.278a5.7 5.7 0 0 1 .355.34c.113.116.226.23.35.333l.09.077v.06H7c.06-.12.13-.198.224-.29l.045-.044c.083-.082.169-.16.258-.237.124-.108.24-.224.356-.342.133-.135.268-.265.411-.389.103-.091.198-.19.295-.288A6.75 6.75 0 0 1 9 17.91c.103-.09.198-.19.295-.287.133-.136.268-.265.411-.39.103-.09.199-.189.295-.287.133-.135.268-.265.412-.389.102-.09.198-.19.294-.287a5.72 5.72 0 0 1 .352-.338c.13-.111.249-.232.369-.354.137-.14.277-.275.426-.404.103-.09.198-.19.294-.287.133-.136.268-.265.412-.389.103-.091.198-.19.294-.288.133-.135.268-.265.412-.389.103-.09.198-.19.294-.287a6.75 6.75 0 0 1 .412-.39c.103-.09.198-.189.294-.287.133-.135.268-.265.412-.389.103-.091.198-.19.294-.287.133-.136.268-.266.412-.39.103-.09.198-.19.294-.287a5.72 5.72 0 0 1 .352-.338c.13-.111.25-.232.37-.353.137-.141.277-.276.426-.405.103-.09.198-.189.294-.287.133-.135.268-.265.412-.389.102-.091.198-.19.294-.287.133-.136.268-.265.412-.39.102-.09.198-.189.294-.287.134-.137.27-.268.416-.393a3.52 3.52 0 0 0 .264-.27c.097-.101.097-.101.173-.105Zm48.954 6.182h2.736a35.723 35.723 0 0 1 .437 1.194l.072.206.173.496.04.111c.122.352.247.703.372 1.054l.057.162.086.241c.11.306.217.611.326.917l.418 1.183.021.057a3097.736 3097.736 0 0 1 .62 1.746l.035.1.164.465.058.163.026.074c.04.112.08.223.125.332h.03l.014-.068.469-2.23.018-.086.991-4.696.024-.113.278-1.308h2.412c-.033.364-.033.364-.06.494l-.02.091-.02.096-.023.105-.06.285-.066.307-.113.531-.18.847-.061.29-.015.072-.11.515a1292.88 1292.88 0 0 0-.687 3.258l-.466 2.213-.232 1.107-.153.727-.103.492-.06.284-.065.308-.019.092-.017.083-.015.072c-.014.057-.014.057-.044.116h-2.589c-.188-.515-.377-1.03-.56-1.546l-.039-.112-.02-.057-.106-.3-.022-.06-.042-.12-.064-.18-.342-.96-.026-.073a347.869 347.869 0 0 0-.438-1.227l-.113-.316-.34-.954c-.334-.935-.67-1.87-1.006-2.803h-.03l-.011.055a3158.82 3158.82 0 0 1-1.285 6.115l-.06.286a2016.165 2016.165 0 0 1-.336 1.584l-.062.293-.021.1-.019.086-.015.073c-.014.057-.014.057-.044.116H65.75c.036-.234.073-.463.122-.694l.019-.088.061-.29.045-.211.097-.458.157-.743.055-.26.014-.067.1-.476c.148-.693.294-1.386.44-2.08l.016-.077.181-.859.182-.859 1.1-5.223Zm-21.531 0h9.031c-.066.43-.066.43-.1.59l-.023.107-.024.113-.026.118a97.36 97.36 0 0 1-.12.562l-.051.243-.037.173-.023.105-.02.093c-.017.073-.017.073-.047.131h-6.501l-.03.265a7.76 7.76 0 0 1-.046.235l-.013.066-.045.212-.032.149-.065.31a281.974 281.974 0 0 0-.18.852l-.043.204-.013.062c-.03.14-.03.14-.063.205h5.972c-.17.854-.17.854-.224 1.114l-.02.091-.038.186-.06.285-.037.183-.018.085-.016.079-.014.069c-.014.055-.014.055-.043.114h-5.972l-.03.236-.618 2.941h6.767c-.067.398-.067.398-.1.56l-.023.11-.025.116-.025.12-.052.252-.068.322-.052.248-.024.12a48.4 48.4 0 0 1-.035.164l-.02.095c-.018.07-.018.07-.047.1-.05.003-.1.003-.149.003h-2.434a3226.541 3226.541 0 0 1-2.743-.002h-.502l-3.468-.001.013-.139.007-.077c.015-.125.04-.247.066-.37l.018-.084.06-.28a147.572 147.572 0 0 1 .148-.704 900.124 900.124 0 0 0 .362-1.719l.245-1.164.016-.076.064-.305.81-3.836.045-.213.352-1.666a604.255 604.255 0 0 0 .206-.973l.04-.188.053-.252.015-.074c.02-.09.04-.178.069-.265Zm44.147.622a2.824 2.824 0 0 1 .75 1.134c.14.389.181.767.183 1.177v.1a4.485 4.485 0 0 1-.069.672h-2.5v-.47c-.061-.38-.166-.725-.482-.965-.651-.44-1.539-.488-2.296-.354-.572.124-1.151.35-1.5.843-.2.32-.317.716-.233 1.091a.844.844 0 0 0 .425.52c.147.065.297.11.45.153l.083.023a40.777 40.777 0 0 0 1.12.297l.79.205.486.126.182.047c.95.244 2.032.534 2.602 1.402.367.627.374 1.43.205 2.122l-.037.138-.02.074a4.71 4.71 0 0 1-2.19 2.89c-1.609.92-3.69 1.108-5.476.645-.895-.247-1.629-.696-2.11-1.5-.254-.47-.33-.977-.332-1.504l-.002-.113c0-.291.042-.519.098-.816h2.5l-.029.236c-.03.385.056.734.265 1.059l.051.08c.406.407 1.015.57 1.575.573a266.445 266.445 0 0 0 .368.002c.37 0 .732-.01 1.095-.096l.065-.015c.518-.126 1.033-.359 1.347-.809.174-.294.34-.65.294-1-.08-.306-.2-.478-.467-.645a3.174 3.174 0 0 0-.55-.23l-.091-.031a15.291 15.291 0 0 0-1.107-.298l-.562-.139-.183-.045c-2.54-.628-2.54-.628-3.106-1.499-.442-.752-.371-1.64-.165-2.456.201-.75.597-1.408 1.112-1.982l.062-.07c1.647-1.742 5.543-2.25 7.399-.572Zm-71.103 6.054h11.914c-.199.232-.199.232-.273.307l-.052.052-.055.055-.06.06-.2.2-.146.145-.398.399-.385.385a7384.317 7384.317 0 0 1-1.764 1.765l-.05.05-1.373 1.373-.053.053-.262.262-.053.053-.105.105a6356.081 6356.081 0 0 0-3.732 3.733l-.78.78a1444.142 1444.142 0 0 1-1.925 1.927l-.057.056c-.126.125-.126.125-.191.125V20.858ZM7 20.858h11.914v11.885a.654.654 0 0 1-.208-.141l-.052-.052-.056-.057-.06-.06-.203-.203a201.107 201.107 0 0 0-.507-.507l-.432-.432a1197.19 1197.19 0 0 1-1.585-1.586l-.05-.05-.199-.198a6579.933 6579.933 0 0 1-3.635-3.637l-.053-.053-.266-.265-.053-.053-1.386-1.387-.05-.05-.198-.198a8997.736 8997.736 0 0 0-2.737-2.738l-.057-.058C7 20.891 7 20.891 7 20.858Zm90.953-6.72.198.002c.174.002.348.006.521.01.178.005.355.007.533.01.348.004.695.012 1.043.021a6.2 6.2 0 0 1 .109.606l.014.102.046.336.034.242.072.522.106.766.173 1.257.166 1.196.01.074.091.656.06.435.01.072.138 1.003.088.632.009.07.26 1.87.049.347.015.111.031.218a9308.983 9308.983 0 0 0 .139.99l.024.17.032.228.009.066.009.063.007.052c.008.1.005.2.005.301H99.16c-.04-.29-.075-.58-.104-.873l-.011-.118a204.583 204.583 0 0 1-.079-.803l-.016-.17-.01-.107-.01-.092c-.008-.132-.006-.264-.006-.396l-4.5.03c-.156.29-.311.582-.471.882l-.283.499c-.144.255-.28.514-.418.773l-.03.056-.079.15c-.044.081-.044.081-.102.17-.088.008-.17.01-.258.01h-.081a33.568 33.568 0 0 1-.45-.003c-.16 0-.322 0-.484-.002l-.494-.001a391.73 391.73 0 0 1-.97-.005 2.53 2.53 0 0 1 .148-.311l.054-.097.058-.103.06-.107.42-.748c.118-.207.235-.415.351-.623.14-.25.281-.5.424-.748.113-.198.224-.397.335-.596.137-.246.277-.49.42-.732.146-.249.286-.5.424-.753.15-.28.308-.557.465-.833a219.27 219.27 0 0 0 .525-.929c.166-.293.332-.587.496-.881.14-.25.281-.5.424-.748.113-.198.224-.397.335-.596.137-.246.277-.49.42-.732.145-.248.285-.498.421-.75.109-.201.222-.398.338-.594.157-.266.307-.535.452-.809.028-.053.057-.106.087-.158a1.74 1.74 0 0 0 .094-.207c.18-.426.48-.388.898-.373Zm.177 2.867-.035.068c-.206.4-.412.8-.63 1.194-.11.2-.216.403-.32.606-.134.26-.271.516-.412.77-.11.203-.218.408-.324.613-.136.262-.275.523-.417.782-.1.183-.199.366-.296.551l-.039.073c-.06.094-.06.094-.086.197h3.06c0-.16-.002-.305-.017-.461l-.012-.112-.012-.12-.013-.13-.035-.347-.037-.364a1409.478 1409.478 0 0 0-.141-1.396l-.069-.676-.021-.216-.035-.34-.013-.126-.017-.17-.01-.097c-.011-.1-.025-.2-.04-.299h-.029Zm-32.474-2.029.06.054c.634.597 1.002 1.547 1.031 2.407.006.282 0 .553-.032.834h-2.589l-.117-.736c-.087-.275-.087-.275-.204-.525l-.042-.076c-.257-.399-.688-.612-1.14-.715-.848-.164-1.734-.029-2.463.446-.213.146-.407.31-.593.488l-.065.059c-.363.343-.62.765-.847 1.206l-.034.064c-.446.849-.674 1.814-.79 2.76l-.012.093c-.088.848-.018 1.825.52 2.524.063.072.129.14.198.207l.046.05c.427.417 1.07.491 1.636.484.83-.02 1.62-.386 2.201-.975.362-.397.593-.835.824-1.324h2.589a1.19 1.19 0 0 1-.112.363l-.026.053c-.026.056-.054.111-.081.167l-.028.058a8.18 8.18 0 0 1-1.508 2.149 5.44 5.44 0 0 1-.658.564l-.05.038c-1.327 1.008-3.09 1.375-4.727 1.153a4.705 4.705 0 0 1-1.4-.426l-.102-.05c-.879-.45-1.502-1.246-1.808-2.175-.5-1.625-.222-3.43.291-5.012l.03-.091a8.41 8.41 0 0 1 1.45-2.693 6.454 6.454 0 0 1 1.378-1.314c1.875-1.338 5.03-1.884 7.174-.109Z"/><path d="M19.385 8.004c.134.098.262.196.378.315l.075.076.076.078c.153.156.307.31.473.452.123.108.236.228.35.345.096.096.192.19.295.278.145.125.278.262.412.399.095.096.191.19.294.278.145.125.278.262.412.398.095.097.191.19.294.279.145.125.278.261.412.398.095.096.19.19.293.277.152.131.291.275.432.418.117.12.238.232.364.34.123.11.237.23.352.348.096.096.192.19.295.278.145.125.277.261.412.398.095.097.191.19.294.278.145.126.278.262.412.399.095.096.191.19.294.278.145.125.277.262.412.398.095.097.191.19.294.279.145.125.278.261.412.398.095.097.191.19.294.278.145.125.278.262.412.399.095.096.191.19.294.278.145.125.278.262.412.398.095.096.19.19.293.278.152.13.291.275.432.418.117.119.237.231.364.34.123.11.237.23.352.347.095.096.192.19.294.278.146.125.278.262.412.399.095.096.192.19.294.278a5.7 5.7 0 0 1 .355.34c.114.116.227.23.351.333l.089.077v.059H7.117a.41.41 0 0 1 .202-.134l.068-.024.075-.025.078-.027.252-.086.173-.06.26-.09c.236-.08.47-.163.705-.247l.1-.036.182-.066c.308-.11.617-.217.928-.32a5.33 5.33 0 0 0 .342-.124c.302-.124.557-.19.885-.189h.118l.328-.001.367-.001.66-.002.99-.002 1.768-.005 2.482-.006h.089c.304-.002.609-.002.913-.003l1.963-.006h.094l4.327-.012h.086l2.1-.005-.155-.155-.044-.044a4.206 4.206 0 0 0-.247-.232 5.868 5.868 0 0 1-.367-.352c-.165-.17-.165-.17-.341-.326a2.957 2.957 0 0 1-.23-.215l-.072-.073-.075-.076-.127-.127-.087-.087c-.195-.198-.195-.198-.4-.385-.19-.162-.362-.345-.537-.522a97.889 97.889 0 0 0-.144-.145l-.043-.043a4.44 4.44 0 0 0-.247-.23 6.117 6.117 0 0 1-.348-.332l-.063-.063a162.542 162.542 0 0 1-.512-.516 6.188 6.188 0 0 0-.348-.323 4.729 4.729 0 0 1-.235-.225l-.047-.047a102.7 102.7 0 0 1-.147-.149l-.1-.1-.182-.183-.08-.08a6.246 6.246 0 0 0-.305-.29c-.228-.208-.444-.428-.66-.646-.174-.176-.174-.176-.357-.342-.19-.162-.361-.345-.536-.522l-.144-.145-.043-.043a3.868 3.868 0 0 0-.45-.396c-.29-.215-.582-.447-.641-.822a5.827 5.827 0 0 1 0-.946c.007-.14.01-.279.014-.418.007-.272.018-.543.033-.814Zm16.947 6.178h10.002c-.17.85-.17.85-.225 1.113l-.019.09-.038.186-.06.284-.037.183-.018.085-.016.078-.014.069c-.014.06-.014.06-.044.147h-3.706l-.06.353a11.15 11.15 0 0 1-.037.19l-.021.101-.023.107-.024.117a295.124 295.124 0 0 1-.139.658l-.14.666-.114.541-.016.078-.033.156a6128.497 6128.497 0 0 1-1.175 5.567l-.047.218-.022.105-.114.546-.06.284-.038.18-.021.104-.018.086c-.016.063-.016.063-.046.093-.08.003-.16.003-.24.003h-.503l-.459-.001a364.885 364.885 0 0 0-1.387-.002 278.071 278.071 0 0 1 .7-3.368l.158-.748.014-.07.06-.278.088-.418.394-1.868.012-.058.22-1.044.021-.102.042-.199.152-.724a400.057 400.057 0 0 0 .185-.88l.035-.168.02-.093c.017-.073.017-.073.047-.132H35.89c.033-.364.033-.364.067-.526l.023-.11a30.084 30.084 0 0 0 .103-.486l.068-.321.065-.308.012-.059.035-.165.02-.094c.019-.078.019-.078.048-.166Zm43.248 0h2.588c-.169.878-.169.878-.228 1.155a364.724 364.724 0 0 1-.088.42l-.05.234-.118.566-.141.669-.33 1.565-.105.497-.522 2.476-.028.134-.014.067-.028.134-.014.066-.014.067-.028.132-.374 1.773-.156.744a444.604 444.604 0 0 0-.213 1.015l-.037.176a71.195 71.195 0 0 1-.064.306c-.034.156-.034.156-.066.189-.08.003-.16.003-.241.003h-.502a350.716 350.716 0 0 1-.927-.002l-.92-.001a133.077 133.077 0 0 1 .34-1.66l.106-.5.087-.414a4465.63 4465.63 0 0 1 1.792-8.508l.105-.497.043-.203.058-.274c.005-.027.01-.054.017-.082l.015-.073.014-.064c.013-.051.013-.051.042-.11ZM7.094 20.918c.252.11.504.22.75.346.108.055.215.107.329.15a9.842 9.842 0 0 1 1.083.518l.066.035a14.888 14.888 0 0 1 .125.069l.102.056c.176.111.316.262.462.41l.099.097.269.27.29.291.504.504a999.76 999.76 0 0 0 1.908 1.911l1.147 1.149.071.071.355.355 2.942 2.947.014-.183.009-.103c.009-.125.011-.25.012-.376v-.451a54.51 54.51 0 0 0-.025-1.618c-.016-.548-.026-1.095-.033-1.643a44.947 44.947 0 0 0-.024-1.012c-.088-2.484-.088-2.484.468-3.113.251-.268.55-.505.873-.68h.03v11.826a.652.652 0 0 1-.207-.141l-.052-.051-.056-.057-.06-.06a76.264 76.264 0 0 1-.201-.2l-.146-.146a241.264 241.264 0 0 1-.786-.786 1107.028 1107.028 0 0 1-1.574-1.574l-.049-.049-.197-.197a8100.52 8100.52 0 0 1-3.502-3.503l-1.851-1.85-.197-.197-.05-.05a5082.901 5082.901 0 0 0-2.716-2.716l-.057-.057c-.125-.127-.125-.127-.125-.192Z"/><path d="M19.385 8.003c.016.303.028.605.035.908.004.141.008.282.016.423.055 1.02.055 1.02-.24 1.352a3.65 3.65 0 0 1-.488.406 4.674 4.674 0 0 0-.352.322l-.06.06-.058.06c-.114.115-.228.23-.351.336-.136.116-.26.242-.385.37-.247.251-.247.251-.376.36-.173.15-.331.315-.492.478-.355.36-.355.36-.54.517-.15.134-.289.28-.43.424-.363.367-.363.367-.548.525-.129.114-.246.24-.365.362l-.06.062-.055.055c-.046.04-.046.04-.105.04l-.018.048c-.058.1-.14.167-.225.243a19.08 19.08 0 0 0-.676.659c-.221.223-.221.223-.341.325-.179.153-.34.324-.505.49l-.2.203-.045.045c-.082.082-.165.16-.253.235a6.26 6.26 0 0 0-.344.328l-.06.061a173.692 173.692 0 0 0-.445.448l-.058.059c-.265.266-.265.266-.46.328l-.09.03-.095.028a7.572 7.572 0 0 0-.584.207c-.13.051-.262.093-.394.136-.25.082-.498.17-.745.262-.254.096-.51.187-.767.274l-.088.03-.44.148-.164.055-.075.025c-.1.034-.187.065-.277.12-.064.038-.064.038-.182.038.048-.12.134-.2.224-.289l.045-.044c.083-.082.169-.16.258-.237.124-.109.24-.224.356-.342a6.85 6.85 0 0 1 .411-.389c.103-.091.198-.19.295-.288.133-.135.268-.265.411-.389.103-.09.198-.19.295-.287a6.75 6.75 0 0 1 .411-.39c.103-.09.199-.189.295-.287.133-.136.268-.265.412-.389.102-.091.198-.19.294-.287a5.72 5.72 0 0 1 .352-.338c.13-.112.249-.232.369-.354.137-.14.277-.275.426-.404.103-.091.198-.19.294-.287.133-.136.268-.265.412-.39.103-.09.198-.189.294-.287.133-.135.268-.265.412-.389.103-.091.198-.19.294-.287.133-.136.268-.266.412-.39.103-.09.198-.189.294-.287.133-.136.268-.265.412-.389.103-.091.198-.19.294-.288.133-.135.268-.265.412-.389.103-.09.198-.19.294-.287a5.78 5.78 0 0 1 .352-.338c.13-.111.25-.232.37-.354.137-.14.277-.275.426-.404.103-.09.198-.19.294-.287.133-.136.268-.265.412-.389.102-.091.198-.19.294-.288.133-.135.268-.265.412-.389.102-.09.198-.19.294-.287a6.74 6.74 0 0 1 .416-.393c.095-.084.182-.175.27-.267.102-.105.102-.105.167-.105Z"/><path d="M19.402 8.004c.135.098.262.196.38.315l.074.076.076.078c.153.156.306.31.473.452.123.108.236.228.35.345.096.096.192.19.295.278.145.125.278.262.412.399.095.096.191.19.294.278.145.125.278.262.412.398.095.097.191.19.294.279.145.125.278.261.412.398.095.096.19.19.293.277.152.131.291.275.432.418.117.12.237.232.364.34.123.11.237.23.352.348.096.096.192.19.294.278.146.125.278.261.412.398.096.097.192.19.294.278.146.126.278.262.412.399.096.096.192.19.295.278.145.125.277.262.411.398.096.097.192.19.295.279.145.125.277.261.412.398.095.097.19.19.294.278.145.125.277.262.412.399.095.096.19.19.294.278.145.125.277.262.412.398.095.096.19.19.293.278.152.13.29.275.432.418.117.119.237.231.364.34.123.11.237.23.352.347.095.096.192.19.294.278.145.125.278.262.412.399.095.096.191.19.294.278a5.7 5.7 0 0 1 .355.34c.141.144.285.28.44.41l-.03.059-.097-.036c-.36-.134-.722-.262-1.085-.387l-.504-.174-.103-.035a254.916 254.916 0 0 1-1.143-.398 14.539 14.539 0 0 0-.637-.213c-.348-.106-.566-.222-.8-.504-.066-.073-.142-.134-.216-.198-.111-.098-.213-.204-.317-.31-.164-.169-.164-.169-.34-.325a2.957 2.957 0 0 1-.23-.215l-.072-.073-.075-.076-.127-.127-.087-.087c-.195-.198-.195-.198-.401-.385-.19-.162-.361-.345-.537-.522a97.889 97.889 0 0 0-.143-.145l-.043-.043a4.405 4.405 0 0 0-.247-.23 6.184 6.184 0 0 1-.348-.332l-.063-.063a162.542 162.542 0 0 1-.454-.457l-.058-.06a6.221 6.221 0 0 0-.349-.322 4.687 4.687 0 0 1-.234-.225l-.047-.047-.147-.149-.1-.1-.182-.183-.08-.08a6.328 6.328 0 0 0-.305-.29c-.228-.208-.444-.428-.66-.646-.174-.176-.174-.176-.357-.342-.19-.162-.361-.345-.537-.522a97.889 97.889 0 0 0-.143-.145l-.043-.043a3.86 3.86 0 0 0-.45-.396c-.29-.215-.583-.447-.642-.822a5.827 5.827 0 0 1 .001-.946c.007-.14.01-.279.013-.418.008-.272.02-.543.034-.814Zm12.379 24.712h1.177c.157.533.308 1.067.456 1.603l.075.271c.295 1.062.588 2.124.881 3.186.162-.519.309-1.04.452-1.564a614.625 614.625 0 0 1 .683-2.46l.059-.208.091-.325.034-.12.046-.161.025-.092c.022-.071.022-.071.052-.13h1.206v6.178h-.736l-.03-5.266c-.324 1.112-.65 2.224-.97 3.337l-.212.736-.072.25c-.09.314-.182.629-.275.943h-.735l-.287-1.01-.022-.078c-.399-1.402-.795-2.805-1.192-4.208l-.03 5.296h-.676v-6.178Zm-.131-11.798.059.03-11.797 11.796-.03-.059c.02-.054.02-.054.053-.12l.037-.075.041-.082.042-.086.135-.271.174-.353.044-.087c.105-.215.208-.43.309-.647.056-.119.114-.237.173-.354l.028-.056.055-.106c.025-.053.048-.107.07-.161.093-.185.249-.321.394-.465l.1-.1.273-.273.295-.295.578-.577.673-.672a1355.27 1355.27 0 0 1 2.364-2.363l.073-.072.072-.072 1.325-1.325.47-.469a768.487 768.487 0 0 1 1.357-1.355l.074-.074c.059-.05.059-.05.117-.05v-.06l.063-.028c.511-.234.511-.234 1.015-.482a7.02 7.02 0 0 1 .465-.209c.117-.051.231-.107.346-.165.138-.07.277-.14.417-.206l.076-.036.06-.021Zm-12.728 0v11.826h-.06a34.92 34.92 0 0 0-.587-1.234 29.927 29.927 0 0 1-.29-.592l-.038-.08-.074-.159a3.937 3.937 0 0 0-.088-.17c-.132-.257-.155-.485-.154-.767l-.002-.117a31.76 31.76 0 0 1 0-.655 44.949 44.949 0 0 0-.021-1.58 96.671 96.671 0 0 1-.033-1.623 45.028 45.028 0 0 0-.024-1.027c-.09-2.545-.09-2.545.51-3.19.62-.632.62-.632.86-.632Z"/><path d="M19.852 20.918a.68.68 0 0 1 .228.167c.073.077.149.148.229.217.148.128.286.266.424.405a41.882 41.882 0 0 0 .218.218l.077.078c.083.088.092.134.093.253l.001.084v.093l.002.099.002.329.002.175.006.834v.067l.009 1.309.001.288v.072l.01 1.158c.003.396.006.792.007 1.189l.005.667a54.155 54.155 0 0 1 .006.859c.007.447-.02.767-.261 1.147a5.677 5.677 0 0 0-.101.208l-.049.1-.049.104c-.145.3-.292.6-.442.899-.134.267-.263.536-.389.807h-.03V20.918ZM7 20.858h11.914l-.147.148-.189.214a2.06 2.06 0 0 1-.18.168 2.236 2.236 0 0 0-.26.27c-.22.258-.42.488-.768.535a5.9 5.9 0 0 1-.525.005l-.237.001c-.191.002-.382 0-.572-.003-.223-.004-.446-.004-.669-.004-.398 0-.795-.003-1.193-.008-.385-.004-.77-.007-1.154-.007h-.358a193.989 193.989 0 0 1-1.505-.007c-.21 0-.421-.001-.632-.005a18.472 18.472 0 0 0-.288-.002c-.434 0-.763-.028-1.128-.273-.076-.048-.157-.086-.238-.124l-.085-.04-.082-.038a122.09 122.09 0 0 1-.168-.08l-.08-.038a7.726 7.726 0 0 1-.193-.096 2.859 2.859 0 0 0-.254-.112c-.183-.071-.358-.157-.535-.242l-.099-.048L7 20.888v-.03Z"/><path d="M19.852 20.858h11.914c-.05.099-.16.12-.257.162a16.84 16.84 0 0 0-.607.278c-.204.098-.41.193-.616.285-.202.09-.401.185-.599.285-.388.197-.388.197-.48.197v.058c-1.031.006-2.062.01-3.093.012l-.365.001h-.073c-.393.002-.785.003-1.177.006-.403.002-.805.003-1.208.003-.248 0-.497.002-.745.004l-.511.001-.295.001c-.107.002-.213.001-.32 0l-.094.003c-.206-.004-.206-.004-.302-.082a2.045 2.045 0 0 1-.143-.184 8.712 8.712 0 0 0-.147-.15l-.079-.08-.08-.08-.081-.081a6.498 6.498 0 0 0-.52-.476 3.934 3.934 0 0 1-.122-.104v-.059Zm81.846 13.838c.086.076.143.158.203.256l.065-.065.082-.082.065-.074c.245-.218.514-.26.832-.256.343.02.56.113.802.35.226.291.218.677.217 1.026v.1l-.001.326v.759l-.001.608-.001 1.25h-.677l-.002-.288-.006-.941-.004-.571-.004-.551-.002-.21-.002-.295v-.087c-.003-.215-.016-.441-.134-.628a1.22 1.22 0 0 1-.034-.056c-.097-.104-.199-.136-.338-.152h-.121l-.061-.001c-.184 0-.287.07-.415.194-.138.218-.155.456-.155.707l-.001.095-.001.307-.002.215-.003.562-.003.574c-.003.376-.005.75-.006 1.126h-.677l-.002-.288-.007-.941-.003-.571-.004-.551-.002-.21-.002-.295v-.087c-.004-.272-.036-.52-.215-.734-.133-.104-.275-.106-.439-.1a.674.674 0 0 0-.434.212c-.152.225-.166.47-.166.733l-.001.093-.002.303-.002.21-.004.553-.004.565-.007 1.108h-.677l-.03-4.325h.707l.029.412.044-.075c.158-.234.359-.35.627-.416.352-.034.685-.007.979.206Zm-12.148-.048c.38.28.487.745.563 1.186.027.19.035.376.036.567v.086a53.642 53.642 0 0 1 .003.448c.003.562-.009 1.247-.395 1.697-.259.26-.535.351-.9.359-.334-.004-.536-.103-.777-.332-.055-.06-.055-.06-.085-.118l-.03 1.97h-.676V34.57h.677l.03.383.113-.138c.364-.406.981-.449 1.442-.166Zm-1.338.638c-.24.287-.25.693-.253 1.05a27.837 27.837 0 0 0-.002.293c0 .066 0 .133-.002.2-.012.779-.012.779.353 1.443a.77.77 0 0 0 .562.105.626.626 0 0 0 .412-.316c.172-.4.169-.828.166-1.255v-.28c.013-.655.013-.655-.272-1.22-.19-.176-.338-.22-.596-.214-.164.013-.255.081-.368.194Zm-5.355-.81c.42-.01.815.043 1.132.337.355.38.304.947.307 1.43l.002.267.005.567.006.656.002.26c.002.301.013.6.036.9h-.735l-.03-.47-.075.12c-.148.222-.318.36-.58.425-.364.06-.716.02-1.02-.199-.322-.283-.361-.713-.39-1.116-.012-.384.071-.75.328-1.044.442-.41 1.108-.439 1.679-.422l.088.03c-.003-.552-.003-.552-.235-1.03a.76.76 0 0 0-.592-.104c-.155.052-.27.124-.348.274-.063.153-.071.276-.09.447h-.706c0-.418.048-.745.347-1.055.243-.202.562-.259.869-.273Zm-.48 2.564c-.171.206-.2.447-.177.706.035.23.108.411.294.559a.682.682 0 0 0 .465.077c.219-.063.365-.207.477-.4.182-.385.185-.791.176-1.207-.668-.038-.668-.038-1.236.265Zm-41.821-2.265c.243.254.316.543.318.886v.073l.001.155.002.249.005.707c.005.685.02 1.364.075 2.047h-.736l-.03-.47-.088.136c-.157.223-.318.346-.586.409-.326.05-.673.038-.953-.152-.264-.221-.378-.54-.424-.875-.034-.448-.034-.905.27-1.263.399-.425.923-.466 1.475-.488.236-.007.236-.007.336.026a26.46 26.46 0 0 0-.022-.322l-.005-.09c-.018-.227-.065-.414-.2-.599a.715.715 0 0 0-.538-.136.62.62 0 0 0-.382.235c-.086.164-.097.314-.118.5h-.735c.034-.389.07-.783.382-1.059.509-.4 1.463-.388 1.953.031Zm-1.57 2.264c-.18.222-.199.46-.177.735.035.22.12.388.294.53.17.101.325.096.515.052.203-.063.32-.198.427-.376.183-.379.186-.794.176-1.206-.668-.038-.668-.038-1.235.265Zm54.558-2.275c.512.513.517 1.27.517 1.948v.073c0 .66-.021 1.387-.498 1.896-.32.297-.75.316-1.165.307-.368-.015-.693-.106-.955-.377-.416-.515-.431-1.248-.427-1.88v-.067c.004-.632.015-1.346.469-1.839.548-.513 1.463-.435 2.06-.06Zm-1.557.543c-.286.366-.269.863-.267 1.305v.07c-.017.799-.017.799.296 1.504.173.155.336.203.567.206a.764.764 0 0 0 .504-.239c.276-.423.266-.954.268-1.441 0-.073 0-.146.002-.22.002-.417-.006-.874-.281-1.21-.211-.173-.378-.204-.653-.196a.635.635 0 0 0-.436.22Zm-36.721-.595c.397.336.528.791.578 1.295.068.834.131 1.913-.413 2.617-.254.268-.588.348-.945.365-.44.012-.847-.026-1.187-.332-.394-.412-.468-1.05-.47-1.597v-.477c-.003-.59.022-1.245.418-1.721.482-.48 1.468-.55 2.019-.15Zm-1.499.604c-.19.28-.23.631-.232.96v.08l-.001.164-.002.245c-.012.777-.012.777.316 1.45.163.147.33.174.546.177.197-.02.356-.077.488-.232.405-.555.345-1.606.253-2.262-.05-.284-.136-.523-.363-.708-.302-.19-.77-.149-1.005.126Zm23.733-.522c.39.359.466.96.487 1.46.004.133.004.265.003.398v.24c.001.622-.052 1.306-.488 1.789-.341.319-.813.316-1.25.303a1.293 1.293 0 0 1-.843-.33c-.55-.634-.5-1.677-.451-2.462.039-.518.116-1.055.514-1.427.555-.432 1.482-.393 2.029.029Zm-1.588.511c-.274.351-.268.858-.265 1.282v.116c-.006.793-.006.793.31 1.495.156.146.342.196.55.194a.67.67 0 0 0 .48-.207c.273-.319.29-.798.292-1.199v-.25l.003-.254c.002-.402 0-.838-.245-1.179-.195-.19-.358-.215-.626-.215a.632.632 0 0 0-.499.217Zm-16.547-.575c.29.304.31.787.308 1.184v.098l-.001.318v.222l-.002.523-.001.653c0 .389-.002.777-.003 1.165h-.676l-.001-.292a305.504 305.504 0 0 0-.008-1.537 116.236 116.236 0 0 0-.003-.774c0-.1 0-.2-.002-.3v-.087c-.003-.214-.035-.45-.175-.62-.18-.159-.362-.169-.593-.165a.643.643 0 0 0-.432.213c-.215.272-.232.662-.234.994l-.001.084-.002.275-.002.19a417.349 417.349 0 0 0-.01 1.015l-.008 1.004h-.677l-.03-4.325h.707l.029.471.092-.123a1.09 1.09 0 0 1 .65-.428c.396-.027.76-.026 1.075.242Zm9.655-.162h.676l.001.29a429.243 429.243 0 0 0 .009 1.525 171.505 171.505 0 0 0 .004.767c0 .1.002.198.003.297v.088c.003.256.047.51.218.71a.723.723 0 0 0 .5.148.845.845 0 0 0 .236-.089l.054-.026c.18-.105.254-.286.328-.474.022-.095.033-.184.034-.282l.001-.079v-.086a313.217 313.217 0 0 0 .004-.39l.002-.207.004-.545.005-.556.009-1.09h.676l.03 4.324h-.706l-.03-.441-.084.12a1.12 1.12 0 0 1-.71.41c-.33.03-.692-.008-.958-.224-.231-.228-.307-.525-.31-.843v-.864l.001-.554a663.498 663.498 0 0 0 .002-1.929Zm-22.982.192c.173.158.29.37.324.602.003.128 0 .255 0 .383h-.736l-.035-.195c-.038-.175-.062-.28-.2-.394a.752.752 0 0 0-.5-.088c-.166.05-.292.112-.383.265a.583.583 0 0 0-.03.441c.133.267.489.39.741.519.96.491.96.491 1.143 1.01a1.55 1.55 0 0 1-.138 1.126c-.18.28-.426.43-.741.515-.44.092-.967.08-1.359-.162-.291-.222-.416-.483-.49-.836-.013-.125-.008-.252-.008-.377h.765l.022.176c.03.19.058.354.205.487a.705.705 0 0 0 .519.123.642.642 0 0 0 .44-.259c.093-.162.103-.314.079-.498-.119-.318-.575-.478-.855-.622-.245-.126-.473-.246-.675-.437a22.625 22.625 0 0 0-.058-.05 1.052 1.052 0 0 1-.354-.715c-.003-.344.07-.646.295-.912.498-.505 1.475-.526 2.029-.102Zm16.858-.035c.274.245.384.49.409.857 0 .075 0 .075-.03.163h-.736l-.058-.352a.615.615 0 0 0-.35-.317c-.196-.023-.357-.014-.533.081-.117.1-.194.187-.217.34-.004.158-.003.283.103.406.182.16.402.266.616.376l.097.05.192.096c.374.188.729.448.886.85.096.332.069.784-.088 1.089-.165.28-.397.464-.706.559l-.066.02c-.456.113-.987.063-1.392-.175a1.13 1.13 0 0 1-.444-.684c-.025-.17-.03-.343-.04-.515h.765l.037.208c.047.272.047.272.22.477.203.113.398.13.62.072.15-.05.261-.105.34-.247.063-.148.104-.297.06-.455-.137-.308-.457-.436-.74-.58-.484-.248-.945-.5-1.158-1.027a1.33 1.33 0 0 1 .109-.972c.222-.336.519-.474.902-.555.408-.034.861-.025 1.202.235Zm-11.515.002c.324.29.388.692.415 1.101.002.094.002.094-.027.153h-.677l-.024-.191c-.036-.25-.07-.434-.27-.603-.145-.097-.302-.075-.471-.06-.172.045-.277.144-.375.29-.198.346-.194.784-.191 1.172v.117c-.009.809-.009.809.33 1.51.137.102.3.155.471.148a.563.563 0 0 0 .376-.238c.138-.215.152-.455.183-.704h.677c.077.307-.029.7-.177.971-.204.274-.467.504-.808.58-.452.055-.9.008-1.271-.273-.397-.366-.484-.994-.507-1.507-.06-1.804-.06-1.804.46-2.37.473-.44 1.371-.487 1.886-.096Zm13.576-1.307v1.147h.853v.56h-.853a651.064 651.064 0 0 0 .02 2.514v.077c.002.173.01.336.121.477.154.119.299.116.486.112h.074l.181-.004.002.278v.08l.001.076v.07c-.003.055-.003.055-.032.085-.417.075-.909.143-1.28-.109-.173-.145-.229-.319-.25-.538a7.262 7.262 0 0 1-.003-.31v-.602l.001-.548v-.56l.002-1.099h-.647v-.559h.647v-.824l.322-.161.101-.051.08-.04.082-.041c.062-.03.062-.03.092-.03Zm8.679 0v1.147h.883v.56h-.883a378.029 378.029 0 0 0 .014 2.036l.001.182c-.02.45-.02.45.103.87.07.037.07.037.147.059l.088.03c.042.002.083.002.125.002h.146l.075-.001.184-.002.002.278v.156l.001.07c-.003.055-.003.055-.032.085-.418.075-.907.142-1.28-.107a.677.677 0 0 1-.231-.44 4.12 4.12 0 0 1-.003-.256v-.098c0-.105 0-.211.002-.317v-.22l.003-.52.002-.65.006-1.158h-.677v-.559h.677v-.824l.276-.145.087-.045.068-.036.07-.037c.114-.06.114-.06.146-.06Zm23.331 1.06v.764l-.204-.018c-.255-.019-.468-.002-.683.146-.233.208-.302.525-.325.825-.009.191-.009.383-.01.575v.184a128.435 128.435 0 0 0-.008.973l-.006.963h-.676v-4.324h.676l.03.53.073-.135c.134-.22.287-.37.538-.44.203-.045.384-.044.595-.044Zm-28.654 0v.764l-.207-.018c-.256-.019-.465.009-.676.166-.391.39-.333 1.01-.336 1.524l-.002.172-.003.448-.004.459-.008.897h-.647v-4.324h.647l.03.559.064-.122c.134-.238.267-.37.524-.467.212-.058.393-.058.618-.058Zm12.593 0v.764l-.204-.018c-.262-.02-.469-.007-.678.166-.241.215-.298.514-.324.823a7.049 7.049 0 0 0-.006.276v.08c-.002.085-.002.17-.003.256l-.002.179a366.34 366.34 0 0 0-.01.948l-.008.938h-.648v-4.324h.648l.03.53.087-.151a.938.938 0 0 1 .589-.438c.181-.032.34-.03.53-.03Zm-38.836.088h.677v4.325h-.677v-4.325Zm63.589-1.798a.656.656 0 0 1 .284.416c.032.304.026.607-.117.882l-.04.08c-.116.213-.258.4-.408.59a7.296 7.296 0 0 0-.317.448l.941.03v.323h-1.382c0-.405 0-.405.155-.622l.049-.071a143.642 143.642 0 0 0 .402-.583c.204-.294.365-.593.335-.96a.437.437 0 0 0-.14-.218.503.503 0 0 0-.272.012.453.453 0 0 0-.123.273l-.024.14h-.382c-.011-.233.011-.438.154-.63.226-.216.601-.238.885-.11ZM18.382 21.271h.06c-.17.354-.43.692-.795.854-.512.146-1.097.095-1.626.084a36.195 36.195 0 0 0-.667-.005c-.397 0-.794-.003-1.192-.01a90.243 90.243 0 0 0-1.151-.009h-.358a176.727 176.727 0 0 1-1.502-.01c-.21 0-.42-.002-.63-.006a19.71 19.71 0 0 0-.289-.003c-.432-.001-.76-.03-1.126-.275-.075-.048-.155-.085-.236-.123l-.083-.04-.081-.037a25.816 25.816 0 0 1-.62-.302v-.059c.151.046.292.098.43.173.874.472 1.746.488 2.714.478.22-.003.44-.002.66-.002.394 0 .787-.002 1.18-.005.38-.003.76-.004 1.141-.003.417 0 .834 0 1.251-.002h.66c.186 0 .372-.001.558-.004.095-.001.19-.002.284-.001.476.014.476.014.881-.2.053-.056.104-.112.155-.169.059-.052.12-.1.182-.149.07-.056.137-.111.2-.175Z"/><path d="M20.242 21.185c.171.123.331.256.49.394.033.03.066.058.1.086.038.033.077.067.114.102.177.155.308.183.539.18l.098.002a181.454 181.454 0 0 1 .558.003c.189.003.378.003.567.003l.463.002 1.317.003h.144c.381 0 .763.002 1.144.005.394.003.788.005 1.181.005.22 0 .44 0 .661.003.919.01 1.737.005 2.562-.446a1.66 1.66 0 0 1 .388-.137v.06l-.106.049c-.237.111-.473.224-.707.342-.448.226-.448.226-.54.226v.059c-1.031.005-2.062.01-3.093.012h-.365l-.073.001-1.177.005c-.403.002-.805.004-1.208.004-.248 0-.497.001-.745.003-.17.002-.34.002-.511.002l-.295.001h-.32l-.094.002c-.205-.003-.205-.003-.302-.081a2.148 2.148 0 0 1-.143-.184 2.294 2.294 0 0 0-.082-.086 50.668 50.668 0 0 1-.3-.294l-.13-.128-.079-.077c-.056-.063-.056-.063-.056-.121Zm-5.123-6.798.059.03-.042.039-.056.054-.055.053c-.056.058-.056.058-.095.13a1.2 1.2 0 0 1-.195.232l-.079.08c-.067.058-.067.058-.126.058l-.017.048c-.058.1-.14.167-.225.243a17.51 17.51 0 0 0-.676.659c-.222.223-.222.223-.342.326-.178.152-.34.323-.505.49l-.2.202-.045.045c-.081.082-.165.16-.252.235a6.26 6.26 0 0 0-.344.328l-.061.061a115.714 115.714 0 0 0-.445.448l-.058.059c-.265.266-.265.266-.46.328l-.09.03-.095.028a7.638 7.638 0 0 0-.588.209 4.463 4.463 0 0 1-.378.13c-.15.048-.15.048-.249.015a.998.998 0 0 1 .27-.156l.095-.038.284-.11a40.052 40.052 0 0 0 .387-.151c.325-.123.548-.264.788-.516l.125-.125.056-.057c.054-.053.11-.103.168-.153.094-.08.182-.166.269-.254.103-.105.21-.203.322-.298a4.39 4.39 0 0 0 .207-.202 5.16 5.16 0 0 1 .322-.299c.072-.064.14-.132.208-.2.103-.106.21-.204.322-.3.098-.088.19-.183.283-.277.08-.079.163-.152.248-.225.09-.08.173-.166.258-.252.079-.078.161-.15.245-.221.055-.05.107-.1.159-.153.07-.07.141-.137.217-.202.135-.117.26-.243.386-.371ZM42.04 32.716h.735v.794h-.736v-.794Z"/><path d="m18.454 11.24.059.029-.236.237-.066.067a5.605 5.605 0 0 1-.316.299c-.135.115-.258.241-.383.367-.247.252-.247.252-.375.362-.174.149-.332.314-.492.477-.356.36-.356.36-.54.518-.15.134-.29.28-.431.423-.473.479-.473.479-.72.662a.63.63 0 0 1 .147-.21l.052-.053.056-.053c.11-.107.216-.213.316-.33.11-.127.23-.242.355-.356.14-.13.277-.26.412-.396.05-.05.102-.095.156-.14.094-.082.183-.168.27-.256.104-.105.21-.203.322-.3.072-.064.14-.132.208-.2a5.16 5.16 0 0 1 .322-.3 4.35 4.35 0 0 0 .207-.2 5.16 5.16 0 0 1 .321-.299c.124-.11.24-.23.356-.349Z"/><path d="m15.953 13.623.06.059-.29.29-.097.099c-.215.216-.428.43-.673.611a.631.631 0 0 1 .148-.21l.052-.052.056-.054c.167-.164.167-.164.323-.338.126-.15.275-.276.421-.405Zm2.492-2.383.058.029-.235.237-.066.067a5.542 5.542 0 0 1-.315.298c-.14.12-.269.25-.398.381l-.074.074-.177.178-.058-.059c.102-.105.206-.207.318-.303.094-.081.182-.167.27-.255.103-.105.21-.203.32-.299.125-.11.24-.23.357-.349Zm12.949 9.827-.099.046c-.233.109-.466.219-.695.336l-.03-.059c.11-.125.262-.167.412-.228l.09-.038.087-.035.079-.032c.068-.02.068-.02.156.01Z"/><path d="m16.477 13.123.03.088c-.322.33-.322.33-.472.442h-.058a.78.78 0 0 1 .2-.265l.076-.076a3.18 3.18 0 0 1 .224-.189Zm-6.951 5.824v.059l-.286.105-.083.03-.079.029-.073.026a.284.284 0 0 1-.185-.014l.32-.134.092-.039.088-.036.081-.034c.067-.021.067-.021.125.008Zm-1.995 2.148c.135.02.252.068.377.12l.062.024.15.062-.03.088a2.403 2.403 0 0 1-.362-.147l-.093-.046c-.074-.042-.074-.042-.104-.101Zm11.791 27.153c0 .088 0 .088-.035.133l-.048.048-.053.051-.055.053-.055.054-.136.132-.088-.03.47-.441Z"/><path d="m9.48 18.918.058.03v.058l-.265.06a.432.432 0 0 1 .206-.148ZM30.806 21.3a.483.483 0 0 1-.236.147c.006-.055.006-.055.03-.118.127-.068.127-.068.206-.03Zm-10.743-.265a.54.54 0 0 1 .176.118l-.03.088a4.045 4.045 0 0 1-.146-.147v-.059Z"/></g><defs><clipPath id="a"><path fill="#fff" d="M0 0h114v48.804H0z"/></clipPath></defs></svg>