<svg xmlns="http://www.w3.org/2000/svg" width="110" height="40" fill="none"><g fill="#fff" opacity=".5"><path d="M96.585 5.105c-.081 0-.15.039-.18.12-.398 1.064-1 2.673-4.794 6.408-.527.519-.04 1.05.436 1.05a.537.537 0 0 0 .407-.17c1.719-1.8 3.126-3.32 4.173-5.196.165-.297.641-1.308.636-1.603-.004-.206-.37-.609-.677-.609m4.137.221c.556 0 1.258.944 1.078 3.048-.147 1.717-1.052 3.305-1.722 4.46-.186.322-.581.133-.709 0-.099-.103-.403-.473-.142-.888 2.261-3.589 1.751-5.41 1.446-6.5-.019-.062-.011-.12.048-.12m-.465 9.751c-.145 0-.252.061-.346.186-.208.273-.49.67-.667.91a.949.949 0 0 0-.205.559c0 .194.12.386.257.494.125.098.244.158.422.133a.501.501 0 0 0 .304-.19c.229-.313.531-.744.69-.971a.86.86 0 0 0 .133-.341c.044-.414-.243-.78-.588-.78ZM86.516 6.785a.567.567 0 0 0-.36.136c-.413.333-1.254 1.018-1.873 1.533-.299.248-.135.726.171.758.1.01.259-.005.435-.152a188.06 188.06 0 0 0 1.874-1.582c.278-.244.115-.693-.247-.693Zm-2.797 3.423c-.126-.015-.213.048-.381.184-2.075 1.842-3.55 3.288-4.688 4.558a25.62 25.62 0 0 0-3.025 4.104c1.095 1.863 1.138 1.935 1.457 1.43.124-.193.246-.382.369-.569 1.65-2.5 3.353-4.53 7.512-8.321-.477-.62-.746-.948-.908-1.142-.149-.177-.229-.23-.337-.244"/><path d="M78.565 13.63c1.395-1.434 2.615-2.544 3.79-3.593.216-.192.296-.367.296-.56 0-.194-.124-.375-.328-.375-.117 0-.199.035-.37.174-1.182 1.012-1.5 1.284-2.577 2.293a21.808 21.808 0 0 0-.47-1.139c-.132-.284-.28-.284-.512-.06-1.247 1.202-1.977 1.964-2.407 2.468-.582.682-.612.946-.537 1.24.076.294.301.94.454 1.334-1.63 2.31-1.661 2.451-1.437 3.03.61 1.29.674 1.424.956.952.065-.112.125-.23.19-.34a25.703 25.703 0 0 1 3.023-4.104c-.313-.57-.472-.858-.07-1.32m3.306 12.204c.599-.963 1.862-2.56 4.376-5.294.994-1.062 2.811-2.89 5.451-5.483a85.825 85.825 0 0 0-1.256-1.186c-.236-.216-.388-.315-.578-.315a.614.614 0 0 0-.455.18c-.129.12-.27.256-.407.385-2.556 2.425-5.193 4.979-7.906 8.59-.919 1.303-.955 1.354-.532 1.824.39.39.912.916 1.309 1.299"/><path d="M98.461 8.923c-.107 0-.207.074-.27.179-1.815 3.087-3.896 5.112-3.915 5.129-.586.53-1.173-.482-1.758 0l-.821.825c-2.64 2.593-4.457 4.42-5.451 5.483-2.514 2.733-3.776 4.331-4.376 5.294-.715 1.15-.482 1.395-.302 1.586 1.277 1.143 1.353 1.127 1.59.8.056-.079.173-.25.258-.37 1.373-1.94 2.66-3.415 5.574-6.349.38-.383.79-.792 1.23-1.229 2.401-2.387 5.64-5.796 7.305-8.083.879-1.207 1.272-1.859 1.586-2.627.125-.307-.216-.64-.65-.64M88.329 29.26c-1.291 1.44-2.064 2.509-2.946 3.943 0 0 .75.53 1.254.876.217.15.46.086.604-.11.761-1.04 1.516-2.028 2.358-2.9.115-.12.26-.414-.035-.704l-1.235-1.104m3.833-22.676c-.13 0-.208.036-.324.134-3.598 3.617-3.701 3.516-4.133 3.091-.168-.166-.484-.212-.76.02a329.3 329.3 0 0 0-1.987 1.763c-4.16 3.793-5.863 5.822-7.513 8.322 1.35 1.864 1.369 1.89 1.722 1.403.11-.155.219-.306.327-.454 1.942-2.672 3.543-4.477 7.836-8.456.443-.411.914-.846 1.42-1.307.835-.764 3.379-3.09 3.853-3.717.284-.376-.078-.799-.44-.799Z"/><path d="M87.335 12.408c-4.291 3.98-5.893 5.785-7.835 8.457a83.492 83.492 0 0 0 1.598 1.846c2.712-3.612 5.35-6.164 7.906-8.59a148.53 148.53 0 0 1-1.67-1.712m9.611 8.45c1.41-1.443 1.345-1.638.96-2.063-.386-.426-.877-.965-1.292-1.414-3.644 4.155-8.235 7.46-11.411 12.01-.54.773-.912 1.345-1.16 1.777-.649 1.131-.44 1.292-.125 1.534.29.204.975.685 1.055.734.151.094.235.055.324-.092l.087-.143a24.91 24.91 0 0 1 2.946-3.942c.421-.471 1.444-1.46 1.902-1.884.47.439 1 .923 1.254 1.146.272.24.527.3.807.046.45-.41 2.677-2.491 3.096-2.924.228-.234.247-.532.07-.762-.358-.398-.739-.822-1.198-1.324a203.75 203.75 0 0 0 2.686-2.698"/><path d="M96.612 17.382c.216-.249.465-.556.57-.7.227-.314-.016-.635-.283-.81-.276-.179-.562-.115-.73.078-1.662 1.886-4.376 4.679-5.846 6.022-.285.26-.648.176-.859-.011l-.468-.46c-2.914 2.933-4.202 4.409-5.574 6.348.534.467 1.241 1.082 1.78 1.543 3.175-4.55 7.767-7.855 11.411-12.01M9.959 18.956v-2.991h2.66v-1.52H9.96v-1.778h3.497v-1.566H8.18v7.855h1.779Zm9.311-3.203c0 .51-.11.922-.33 1.236-.22.315-.61.472-1.167.472s-.948-.157-1.171-.471c-.224-.315-.336-.726-.336-1.237V11.1h-1.79v4.875c0 .629.136 1.183.407 1.666.27.484.654.858 1.148 1.125.495.267 1.075.4 1.742.4.668 0 1.258-.135 1.75-.406.49-.27.87-.646 1.142-1.124.27-.479.406-1.032.406-1.66V11.1H19.27v4.653-.001Zm4.972-4.653h-1.695v7.856H24.3v-5.193l3.487 5.193H29.4v-7.855h-1.755V16.2l-3.404-5.1Zm11.816.419c-.632-.28-1.352-.418-2.16-.418H30.93v7.855h2.956c.808 0 1.528-.143 2.16-.43a3.387 3.387 0 0 0 1.496-1.295c.366-.577.548-1.298.548-2.161 0-.918-.18-1.67-.542-2.255a3.26 3.26 0 0 0-1.49-1.296Zm-.454 5.235c-.424.416-1.029.624-1.813.624h-1.084v-4.712h1.084c.847 0 1.467.218 1.86.654.393.436.588 1.015.588 1.737 0 .723-.212 1.28-.635 1.696Zm5.594-5.654-2.932 7.856h1.86l.6-1.802h2.768l.6 1.802h1.943l-2.873-7.855h-1.967Zm-.059 4.676.977-2.967.954 2.967h-1.93Zm10.779 1.137c-.177.16-.39.292-.642.394-.251.102-.565.153-.942.153-.456 0-.852-.108-1.19-.324a2.172 2.172 0 0 1-.783-.877 2.752 2.752 0 0 1-.276-1.249c0-.463.092-.871.276-1.248a2.22 2.22 0 0 1 .79-.901c.34-.224.747-.336 1.218-.336.47 0 .832.1 1.154.3.322.2.6.465.836.795l1.213-1.166a3.6 3.6 0 0 0-1.366-1.154c-.55-.267-1.186-.4-1.908-.4a4.17 4.17 0 0 0-1.655.318 3.797 3.797 0 0 0-1.284.883 4.014 4.014 0 0 0-.83 1.324 4.474 4.474 0 0 0-.295 1.632c0 .792.17 1.497.513 2.114a3.75 3.75 0 0 0 1.425 1.454c.608.354 1.309.53 2.103.53.486 0 .942-.074 1.366-.223a4.38 4.38 0 0 0 1.148-.6c.342-.252.622-.526.842-.825L52.418 16.4c-.157.18-.324.351-.5.513Zm-.734 2.737c-.275-.18-.605-.271-.99-.271a3.6 3.6 0 0 0-1.024.13l-.153.8c.118-.04.245-.069.383-.088.137-.02.272-.029.406-.029.157 0 .296.021.418.064.122.044.182.12.182.23 0 .126-.069.21-.206.253a1.464 1.464 0 0 1-.441.064c-.275 0-.554-.047-.836-.141l-.165.848c.102.031.26.068.477.111.216.044.469.065.76.065.259 0 .512-.044.76-.13.247-.086.449-.222.606-.406.157-.185.236-.418.236-.701 0-.354-.138-.62-.413-.8v.001Zm5.631-8.55-2.932 7.856h1.86l.6-1.802h2.768l.6 1.802h1.943l-2.873-7.855h-1.967.001Zm-.059 4.676.978-2.967.953 2.967h-1.93Zm-.327-5.647c.177-.09.386-.135.63-.135.212 0 .398.04.56.123l.488.253a1.2 1.2 0 0 0 .565.13c.322 0 .612-.079.872-.236.259-.157.474-.326.647-.507l-.636-.965c-.133.102-.288.2-.465.294a1.32 1.32 0 0 1-.63.142c-.204 0-.389-.041-.553-.124l-.495-.247a1.247 1.247 0 0 0-.565-.124c-.314 0-.605.077-.871.23-.268.153-.483.32-.648.5l.636.966c.133-.11.288-.21.465-.3Zm13.289 3.261a4.002 4.002 0 0 0-2.167-2.19 4.117 4.117 0 0 0-1.613-.312c-.58 0-1.121.104-1.62.312-.498.208-.932.5-1.3.877-.37.377-.656.815-.86 1.313a4.263 4.263 0 0 0-.306 1.631c0 .589.102 1.123.306 1.625a3.986 3.986 0 0 0 2.167 2.197 4.118 4.118 0 0 0 1.614.312c.581 0 1.119-.105 1.613-.312a3.987 3.987 0 0 0 2.167-2.197 4.272 4.272 0 0 0 .306-1.625 4.29 4.29 0 0 0-.306-1.63Zm-1.82 2.844a2.215 2.215 0 0 1-.765.906c-.334.228-.732.342-1.195.342-.463 0-.862-.114-1.195-.342a2.258 2.258 0 0 1-.772-.906 2.823 2.823 0 0 1-.27-1.237c0-.448.09-.858.27-1.23.181-.373.438-.671.772-.895.334-.224.732-.336 1.195-.336.463 0 .862.112 1.195.336.334.224.589.522.765.895.177.373.265.783.265 1.23 0 .447-.088.86-.265 1.237ZM11.033 31.335v-10.1H8.172v12.64h8.907v-2.54h-6.046Zm14.297-5.998c-.65-.436-1.455-.653-2.416-.653-.96 0-1.784.217-2.473.653a4.283 4.283 0 0 0-1.573 1.734 5.14 5.14 0 0 0-.54 2.332c0 .935.196 1.762.588 2.483.391.72.954 1.282 1.687 1.686.732.404 1.604.607 2.615.607.77 0 1.421-.089 1.951-.266.53-.176.957-.366 1.28-.569.322-.201.546-.347.672-.436l-1.118-1.724c-.202.151-.524.331-.966.54-.443.208-1.018.312-1.725.312-.707 0-1.27-.183-1.687-.549-.417-.366-.632-.783-.644-1.25h6.33v-.456c0-.997-.168-1.88-.503-2.644-.334-.764-.827-1.364-1.478-1.8Zm-4.348 3.155c0-.252.072-.508.217-.768.145-.258.36-.477.644-.653.285-.177.635-.266 1.052-.266.418 0 .762.089 1.033.266.272.176.474.395.607.653.132.26.198.515.198.768h-3.752Zm18.756-3.714c-.57 0-1.115.108-1.64.323a3.75 3.75 0 0 0-1.335.91c-.202-.291-.512-.57-.929-.834-.417-.266-.979-.399-1.687-.399-.581 0-1.086.114-1.516.341-.43.227-.784.512-1.062.853l-.095-.986H28.86v8.888h2.73V29.1c0-.569.163-1.036.492-1.402.328-.367.745-.55 1.25-.55.468 0 .819.149 1.053.446.233.297.35.704.35 1.222v5.06h2.635V29.1c0-.57.16-1.036.483-1.403.322-.366.742-.549 1.26-.549.468 0 .818.149 1.052.445.234.297.35.705.35 1.223v5.06h2.73v-5.495c0-1.1-.304-1.974-.91-2.625-.607-.65-1.472-.975-2.596-.975v-.003Zm9.309-.096c-1.05 0-1.89.124-2.52.37-.633.246-1.132.514-1.498.805l1.118 1.667c.279-.189.62-.36 1.023-.511.404-.152.903-.227 1.497-.227.442 0 .837.098 1.184.294.348.195.521.52.521.976v.189c-.101-.025-.313-.044-.635-.057a24.49 24.49 0 0 0-.957-.019c-.77 0-1.465.124-2.084.37-.62.246-1.109.61-1.469 1.09-.36.48-.54 1.067-.54 1.762 0 .694.165 1.263.493 1.667.329.405.723.685 1.184.843.461.158.9.237 1.317.237 1.162 0 2.06-.366 2.691-1.1l.076.834h2.558V28.7c0-1.225-.322-2.202-.967-2.928-.644-.726-1.642-1.09-2.994-1.09l.002.001Zm1.327 5.99c0 .492-.18.87-.54 1.136-.36.266-.755.398-1.184.398-.885 0-1.326-.366-1.326-1.099 0-.391.157-.694.473-.91.316-.214.853-.322 1.611-.322a5.783 5.783 0 0 1 .966.076v.72Zm9.943-5.894c-.505 0-.999.108-1.478.322-.48.216-.866.5-1.156.853l-.075-.967h-2.616v8.888h2.71V29.1c0-.518.155-.973.465-1.365.309-.391.76-.588 1.355-.588.442 0 .786.146 1.032.436.246.291.37.682.37 1.175v5.117h2.728v-5.496c0-1.187-.303-2.084-.91-2.69-.606-.607-1.415-.91-2.425-.91Zm13.081.91c-.607-.606-1.415-.91-2.426-.91-.505 0-.997.108-1.477.323-.48.215-.866.498-1.156.852l-.076-.966h-2.615v8.887h2.71V29.1c0-.518.155-.973.465-1.365.31-.391.761-.588 1.355-.588.442 0 .787.146 1.032.436.246.291.37.683.37 1.175v5.117h2.729v-5.496c0-1.187-.304-2.084-.91-2.69h-.001Z"/></g></svg>